{"glyphs":{"0":{"ha":694,"x_min":99,"x_max":595,"o":"m 298 298 l 298 496 l 397 496 l 397 298 l 298 298 m 99 99 l 99 694 l 198 694 l 198 794 l 496 794 l 496 694 l 595 694 l 595 99 l 496 99 l 496 0 l 198 0 l 198 99 l 496 99 l 496 694 l 198 694 l 198 99 l 99 99 z "},"1":{"ha":694,"x_min":198,"x_max":496,"o":"m 198 496 l 198 595 l 298 595 l 298 694 l 397 694 l 397 794 l 496 794 l 496 0 l 397 0 l 397 595 l 298 595 l 298 496 l 198 496 z "},"2":{"ha":694,"x_min":99,"x_max":595,"o":"m 99 0 l 99 198 l 198 198 l 198 298 l 298 298 l 298 397 l 397 397 l 397 496 l 496 496 l 496 694 l 198 694 l 198 595 l 99 595 l 99 694 l 198 694 l 198 794 l 496 794 l 496 694 l 595 694 l 595 496 l 496 496 l 496 397 l 397 397 l 397 298 l 298 298 l 298 198 l 198 198 l 198 99 l 595 99 l 595 0 l 99 0 z "},"3":{"ha":694,"x_min":99,"x_max":595,"o":"m 99 595 l 99 694 l 198 694 l 198 794 l 496 794 l 496 694 l 595 694 l 595 496 l 496 496 l 496 397 l 595 397 l 595 99 l 496 99 l 496 0 l 198 0 l 198 99 l 99 99 l 99 198 l 198 198 l 198 99 l 496 99 l 496 397 l 298 397 l 298 496 l 496 496 l 496 694 l 198 694 l 198 595 l 99 595 z "},"4":{"ha":694,"x_min":99,"x_max":595,"o":"m 397 0 l 397 198 l 99 198 l 99 496 l 198 496 l 198 694 l 298 694 l 298 496 l 198 496 l 198 298 l 397 298 l 397 694 l 298 694 l 298 794 l 496 794 l 496 298 l 595 298 l 595 198 l 496 198 l 496 0 l 397 0 z "},"5":{"ha":694,"x_min":99,"x_max":595,"o":"m 595 794 l 99 794 l 99 397 l 496 397 l 496 99 l 198 99 l 198 198 l 99 198 l 99 99 l 198 99 l 198 0 l 496 0 l 496 99 l 595 99 l 595 397 l 496 397 l 496 496 l 198 496 l 198 694 l 595 694 l 595 794 z "},"6":{"ha":694,"x_min":99,"x_max":595,"o":"m 595 595 l 595 694 l 496 694 l 496 794 l 198 794 l 198 694 l 99 694 l 99 99 l 198 99 l 198 397 l 496 397 l 496 99 l 198 99 l 198 0 l 496 0 l 496 99 l 595 99 l 595 397 l 496 397 l 496 496 l 198 496 l 198 694 l 496 694 l 496 595 l 595 595 z "},"7":{"ha":694,"x_min":99,"x_max":595,"o":"m 99 0 l 99 198 l 198 198 l 198 298 l 298 298 l 298 397 l 397 397 l 397 496 l 496 496 l 496 694 l 99 694 l 99 794 l 595 794 l 595 496 l 496 496 l 496 397 l 397 397 l 397 298 l 298 298 l 298 198 l 198 198 l 198 0 l 99 0 z "},"8":{"ha":694,"x_min":99,"x_max":595,"o":"m 198 99 l 496 99 l 496 397 l 198 397 l 198 99 m 198 496 l 496 496 l 496 694 l 198 694 l 198 496 m 99 496 l 99 694 l 198 694 l 198 794 l 496 794 l 496 694 l 595 694 l 595 496 l 496 496 l 496 397 l 595 397 l 595 99 l 496 99 l 496 0 l 198 0 l 198 99 l 99 99 l 99 397 l 198 397 l 198 496 l 99 496 z "},"9":{"ha":694,"x_min":99,"x_max":595,"o":"m 198 397 l 496 397 l 496 694 l 198 694 l 198 397 m 99 397 l 99 694 l 198 694 l 198 794 l 496 794 l 496 694 l 595 694 l 595 99 l 496 99 l 496 0 l 198 0 l 198 99 l 99 99 l 99 198 l 198 198 l 198 99 l 496 99 l 496 298 l 198 298 l 198 397 l 99 397 z "},"Τ":{"ha":694,"x_min":0,"x_max":99,"o":"m 0 0 l 0 893 l 99 893 l 99 0 l 0 0 m 0 0 l 99 0 l 99 893 l 0 893 l 0 0 z "},"\u0000":{"ha":694,"x_min":0,"x_max":0,"o":""},"\r":{"ha":694,"x_min":0,"x_max":0,"o":""},"\u0001":{"ha":694,"x_min":0,"x_max":0,"o":""},"\u0002":{"ha":694,"x_min":0,"x_max":0,"o":""},"\u0003":{"ha":694,"x_min":0,"x_max":0,"o":""},"\u0004":{"ha":694,"x_min":0,"x_max":0,"o":""},"\u0005":{"ha":694,"x_min":0,"x_max":0,"o":""},"\u0006":{"ha":694,"x_min":0,"x_max":0,"o":""},"\u0007":{"ha":694,"x_min":0,"x_max":0,"o":""},"\b":{"ha":694,"x_min":0,"x_max":0,"o":""},"\t":{"ha":694,"x_min":0,"x_max":0,"o":""},"\n":{"ha":694,"x_min":0,"x_max":0,"o":""},"\u000b":{"ha":694,"x_min":0,"x_max":0,"o":""},"\f":{"ha":694,"x_min":0,"x_max":0,"o":""},"\u000e":{"ha":694,"x_min":0,"x_max":0,"o":""},"\u000f":{"ha":694,"x_min":0,"x_max":0,"o":""},"\u0010":{"ha":694,"x_min":0,"x_max":0,"o":""},"\u0011":{"ha":694,"x_min":0,"x_max":0,"o":""},"\u0012":{"ha":694,"x_min":0,"x_max":0,"o":""},"\u0013":{"ha":694,"x_min":0,"x_max":0,"o":""},"\u0014":{"ha":694,"x_min":0,"x_max":0,"o":""},"\u0015":{"ha":694,"x_min":0,"x_max":0,"o":""},"\u0016":{"ha":694,"x_min":0,"x_max":0,"o":""},"\u0017":{"ha":694,"x_min":0,"x_max":0,"o":""},"\u0018":{"ha":694,"x_min":0,"x_max":0,"o":""},"\u0019":{"ha":694,"x_min":0,"x_max":0,"o":""},"\u001a":{"ha":694,"x_min":0,"x_max":0,"o":""},"\u001b":{"ha":694,"x_min":0,"x_max":0,"o":""},"\u001c":{"ha":694,"x_min":0,"x_max":0,"o":""},"\u001d":{"ha":694,"x_min":0,"x_max":0,"o":""},"\u001e":{"ha":694,"x_min":0,"x_max":0,"o":""},"\u001f":{"ha":694,"x_min":0,"x_max":0,"o":""}," ":{"ha":694,"x_min":0,"x_max":0,"o":""},"!":{"ha":694,"x_min":298,"x_max":397,"o":"m 298 298 l 397 298 l 397 1091 l 298 1091 l 298 298 m 298 -99 l 298 99 l 397 99 l 397 -99 l 298 -99 z "},"\"":{"ha":694,"x_min":198,"x_max":496,"o":"m 397 893 l 496 893 l 496 595 l 397 595 l 397 893 m 198 893 l 298 893 l 298 595 l 198 595 l 198 893 z "},"#":{"ha":694,"x_min":0,"x_max":694,"o":"m 0 794 l 0 694 l 99 694 l 99 99 l 0 99 l 0 0 l 99 0 l 99 -298 l 198 -298 l 198 0 l 496 0 l 496 -298 l 595 -298 l 595 0 l 694 0 l 694 99 l 595 99 l 595 694 l 694 694 l 694 794 l 595 794 l 595 1091 l 496 1091 l 496 794 l 198 794 l 198 1091 l 99 1091 l 99 794 l 0 794 m 198 694 l 496 694 l 496 99 l 198 99 l 198 694 z "},"$":{"ha":694,"x_min":99,"x_max":595,"o":"m 198 496 l 198 694 l 298 694 l 298 496 l 198 496 m 198 496 l 198 397 l 298 397 l 298 99 l 198 99 l 198 198 l 99 198 l 99 99 l 198 99 l 198 0 l 298 0 l 298 -99 l 397 -99 l 397 0 l 496 0 l 496 99 l 397 99 l 397 397 l 496 397 l 496 99 l 595 99 l 595 397 l 496 397 l 496 496 l 397 496 l 397 694 l 496 694 l 496 794 l 397 794 l 397 893 l 298 893 l 298 794 l 198 794 l 198 694 l 99 694 l 99 496 l 198 496 m 496 694 l 496 595 l 595 595 l 595 694 l 496 694 z "},"%":{"ha":694,"x_min":0,"x_max":694,"o":"m 298 -99 l 298 0 l 397 0 l 397 99 l 496 99 l 496 0 l 595 0 l 595 -99 l 496 -99 l 496 -198 l 397 -198 l 397 -99 l 496 -99 l 496 0 l 397 0 l 397 -99 l 298 -99 m 99 794 l 99 893 l 198 893 l 198 992 l 298 992 l 298 893 l 397 893 l 397 794 l 298 794 l 298 694 l 198 694 l 198 794 l 298 794 l 298 893 l 198 893 l 198 794 l 99 794 m 0 -298 l 0 -99 l 99 -99 l 99 99 l 198 99 l 198 298 l 298 298 l 298 496 l 397 496 l 397 694 l 496 694 l 496 893 l 595 893 l 595 1091 l 694 1091 l 694 893 l 595 893 l 595 694 l 496 694 l 496 496 l 397 496 l 397 298 l 298 298 l 298 99 l 198 99 l 198 -99 l 99 -99 l 99 -298 l 0 -298 z "},"&":{"ha":694,"x_min":0,"x_max":595,"o":"m 0 99 l 0 496 l 99 496 l 99 794 l 198 794 l 198 893 l 397 893 l 397 794 l 496 794 l 496 595 l 397 595 l 397 496 l 298 496 l 298 595 l 397 595 l 397 794 l 198 794 l 198 496 l 99 496 l 99 99 l 397 99 l 397 298 l 298 298 l 298 397 l 198 397 l 198 496 l 298 496 l 298 397 l 397 397 l 397 298 l 496 298 l 496 496 l 595 496 l 595 298 l 496 298 l 496 99 l 595 99 l 595 0 l 496 0 l 496 99 l 397 99 l 397 0 l 99 0 l 99 99 l 0 99 z "},"'":{"ha":694,"x_min":198,"x_max":496,"o":"m 198 595 l 198 694 l 298 694 l 298 794 l 397 794 l 397 893 l 496 893 l 496 794 l 397 794 l 397 694 l 298 694 l 298 595 l 198 595 z "},"(":{"ha":694,"x_min":397,"x_max":694,"o":"m 694 1091 l 694 893 l 595 893 l 595 694 l 496 694 l 496 99 l 595 99 l 595 -99 l 694 -99 l 694 -298 l 595 -298 l 595 -99 l 496 -99 l 496 99 l 397 99 l 397 694 l 496 694 l 496 893 l 595 893 l 595 1091 l 694 1091 m 694 -298 z "},")":{"ha":694,"x_min":0,"x_max":298,"o":"m 0 1091 l 0 893 l 99 893 l 99 694 l 198 694 l 198 99 l 99 99 l 99 -99 l 0 -99 l 0 -298 l 99 -298 l 99 -99 l 198 -99 l 198 99 l 298 99 l 298 694 l 198 694 l 198 893 l 99 893 l 99 1091 l 0 1091 z "},"*":{"ha":694,"x_min":0,"x_max":694,"o":"m 298 794 l 397 794 l 397 595 l 496 595 l 496 694 l 595 694 l 595 595 l 496 595 l 496 496 l 694 496 l 694 397 l 496 397 l 496 298 l 595 298 l 595 198 l 496 198 l 496 298 l 397 298 l 397 99 l 298 99 l 298 298 l 198 298 l 198 198 l 99 198 l 99 298 l 198 298 l 198 397 l 0 397 l 0 496 l 198 496 l 198 595 l 99 595 l 99 694 l 198 694 l 198 595 l 298 595 l 298 794 z "},"+":{"ha":694,"x_min":0,"x_max":694,"o":"m 397 1091 l 397 496 l 694 496 l 694 397 l 397 397 l 397 -298 l 298 -298 l 298 397 l 0 397 l 0 496 l 298 496 l 298 1091 l 397 1091 z "},",":{"ha":694,"x_min":198,"x_max":496,"o":"m 198 -99 l 198 0 l 298 0 l 298 99 l 397 99 l 397 198 l 496 198 l 496 99 l 397 99 l 397 0 l 298 0 l 298 -99 l 198 -99 z "},"-":{"ha":694,"x_min":0,"x_max":694,"o":"m 0 496 l 694 496 l 694 397 l 0 397 l 0 496 z "},".":{"ha":694,"x_min":298,"x_max":397,"o":"m 397 -99 l 397 99 l 298 99 l 298 -99 l 397 -99 z "},"/":{"ha":694,"x_min":0,"x_max":694,"o":"m 0 -298 l 0 -99 l 99 -99 l 99 99 l 198 99 l 198 298 l 298 298 l 298 496 l 397 496 l 397 694 l 496 694 l 496 893 l 595 893 l 595 1091 l 694 1091 l 694 893 l 595 893 l 595 694 l 496 694 l 496 496 l 397 496 l 397 298 l 298 298 l 298 99 l 198 99 l 198 -99 l 99 -99 l 99 -298 l 0 -298 z "},":":{"ha":694,"x_min":298,"x_max":397,"o":"m 298 -99 l 298 99 l 397 99 l 397 -99 l 298 -99 m 298 794 l 397 794 l 397 595 l 298 595 l 298 794 z "},";":{"ha":694,"x_min":198,"x_max":496,"o":"m 198 -99 l 198 0 l 298 0 l 298 99 l 397 99 l 397 198 l 496 198 l 496 99 l 397 99 l 397 0 l 298 0 l 298 -99 l 198 -99 m 298 794 l 298 595 l 397 595 l 397 794 l 298 794 z "},"<":{"ha":694,"x_min":0,"x_max":694,"o":"m 694 0 l 496 0 l 496 99 l 298 99 l 298 198 l 99 198 l 99 298 l 0 298 l 0 496 l 99 496 l 99 595 l 298 595 l 298 694 l 496 694 l 496 794 l 694 794 l 694 694 l 496 694 l 496 595 l 298 595 l 298 496 l 99 496 l 99 298 l 298 298 l 298 198 l 496 198 l 496 99 l 694 99 l 694 0 z "},"=":{"ha":694,"x_min":0,"x_max":694,"o":"m 0 99 l 694 99 l 694 0 l 0 0 l 0 99 m 0 794 l 694 794 l 694 694 l 0 694 l 0 794 z "},">":{"ha":694,"x_min":0,"x_max":694,"o":"m 0 0 l 198 0 l 198 99 l 397 99 l 397 198 l 595 198 l 595 298 l 694 298 l 694 496 l 595 496 l 595 595 l 397 595 l 397 694 l 198 694 l 198 794 l 0 794 l 0 694 l 198 694 l 198 595 l 397 595 l 397 496 l 595 496 l 595 298 l 397 298 l 397 198 l 198 198 l 198 99 l 0 99 l 0 0 z "},"?":{"ha":694,"x_min":99,"x_max":595,"o":"m 298 -99 l 298 99 l 397 99 l 397 -99 l 298 -99 m 99 694 l 99 893 l 198 893 l 198 992 l 496 992 l 496 893 l 595 893 l 595 595 l 496 595 l 496 496 l 397 496 l 397 298 l 298 298 l 298 496 l 397 496 l 397 595 l 496 595 l 496 893 l 198 893 l 198 694 l 99 694 z "},"@":{"ha":694,"x_min":0,"x_max":595,"o":"m 496 0 l 496 99 l 198 99 l 198 198 l 99 198 l 99 595 l 198 595 l 198 694 l 496 694 l 496 595 l 298 595 l 298 496 l 496 496 l 496 298 l 298 298 l 298 496 l 198 496 l 198 298 l 298 298 l 298 198 l 496 198 l 496 298 l 595 298 l 595 694 l 496 694 l 496 794 l 198 794 l 198 694 l 99 694 l 99 595 l 0 595 l 0 198 l 99 198 l 99 99 l 198 99 l 198 0 l 496 0 z "},"A":{"ha":694,"x_min":99,"x_max":595,"o":"m 99 0 l 99 694 l 198 694 l 198 794 l 496 794 l 496 694 l 595 694 l 595 0 l 496 0 l 496 298 l 198 298 l 198 0 l 99 0 m 496 397 l 496 694 l 198 694 l 198 397 l 496 397 z "},"B":{"ha":694,"x_min":99,"x_max":595,"o":"m 99 0 l 99 794 l 496 794 l 496 694 l 198 694 l 198 496 l 496 496 l 496 694 l 595 694 l 595 496 l 496 496 l 496 397 l 198 397 l 198 99 l 496 99 l 496 397 l 595 397 l 595 99 l 496 99 l 496 0 l 99 0 z "},"C":{"ha":694,"x_min":99,"x_max":595,"o":"m 198 794 l 496 794 l 496 694 l 595 694 l 595 595 l 496 595 l 496 694 l 198 694 l 198 99 l 496 99 l 496 198 l 595 198 l 595 99 l 496 99 l 496 0 l 198 0 l 198 99 l 99 99 l 99 694 l 198 694 l 198 794 z "},"D":{"ha":694,"x_min":99,"x_max":595,"o":"m 99 794 l 496 794 l 496 694 l 198 694 l 198 99 l 496 99 l 496 694 l 595 694 l 595 99 l 496 99 l 496 0 l 99 0 l 99 794 z "},"E":{"ha":694,"x_min":99,"x_max":595,"o":"m 99 794 l 595 794 l 595 694 l 198 694 l 198 496 l 496 496 l 496 397 l 198 397 l 198 99 l 595 99 l 595 0 l 99 0 l 99 794 z "},"F":{"ha":694,"x_min":99,"x_max":595,"o":"m 99 0 l 99 794 l 595 794 l 595 694 l 198 694 l 198 496 l 496 496 l 496 397 l 198 397 l 198 0 l 99 0 z "},"G":{"ha":694,"x_min":99,"x_max":595,"o":"m 595 595 l 595 694 l 496 694 l 496 794 l 198 794 l 198 694 l 99 694 l 99 99 l 198 99 l 198 0 l 496 0 l 496 99 l 595 99 l 595 397 l 298 397 l 298 298 l 496 298 l 496 99 l 198 99 l 198 694 l 496 694 l 496 595 l 595 595 z "},"H":{"ha":694,"x_min":99,"x_max":595,"o":"m 99 0 l 99 794 l 198 794 l 198 496 l 496 496 l 496 794 l 595 794 l 595 0 l 496 0 l 496 397 l 198 397 l 198 0 l 99 0 z "},"I":{"ha":694,"x_min":99,"x_max":595,"o":"m 99 0 l 99 99 l 298 99 l 298 694 l 99 694 l 99 794 l 595 794 l 595 694 l 397 694 l 397 99 l 595 99 l 595 0 l 99 0 z "},"J":{"ha":694,"x_min":99,"x_max":595,"o":"m 99 99 l 99 298 l 198 298 l 198 99 l 496 99 l 496 794 l 595 794 l 595 99 l 496 99 l 496 0 l 198 0 l 198 99 l 99 99 z "},"K":{"ha":694,"x_min":99,"x_max":595,"o":"m 99 0 l 99 794 l 198 794 l 198 496 l 298 496 l 298 595 l 397 595 l 397 694 l 496 694 l 496 794 l 595 794 l 595 694 l 496 694 l 496 595 l 397 595 l 397 496 l 298 496 l 298 298 l 397 298 l 397 198 l 496 198 l 496 99 l 595 99 l 595 0 l 496 0 l 496 99 l 397 99 l 397 198 l 298 198 l 298 298 l 198 298 l 198 0 l 99 0 z "},"L":{"ha":694,"x_min":99,"x_max":595,"o":"m 99 794 l 198 794 l 198 99 l 595 99 l 595 0 l 99 0 l 99 794 z "},"M":{"ha":694,"x_min":99,"x_max":595,"o":"m 99 0 l 99 794 l 198 794 l 198 694 l 298 694 l 298 595 l 397 595 l 397 694 l 496 694 l 496 794 l 595 794 l 595 0 l 496 0 l 496 595 l 397 595 l 397 496 l 298 496 l 298 595 l 198 595 l 198 0 l 99 0 z "},"N":{"ha":694,"x_min":99,"x_max":595,"o":"m 99 0 l 99 794 l 198 794 l 198 694 l 298 694 l 298 496 l 397 496 l 397 298 l 496 298 l 496 794 l 595 794 l 595 0 l 496 0 l 496 99 l 397 99 l 397 298 l 298 298 l 298 496 l 198 496 l 198 0 l 99 0 z "},"O":{"ha":694,"x_min":99,"x_max":595,"o":"m 198 0 l 198 99 l 99 99 l 99 694 l 198 694 l 198 794 l 496 794 l 496 694 l 595 694 l 595 99 l 496 99 l 496 694 l 198 694 l 198 99 l 496 99 l 496 0 l 198 0 z "},"P":{"ha":694,"x_min":99,"x_max":595,"o":"m 99 0 l 99 794 l 496 794 l 496 694 l 198 694 l 198 397 l 496 397 l 496 694 l 595 694 l 595 397 l 496 397 l 496 298 l 198 298 l 198 0 l 99 0 z "},"Q":{"ha":694,"x_min":99,"x_max":595,"o":"m 198 0 l 198 99 l 99 99 l 99 694 l 198 694 l 198 794 l 496 794 l 496 694 l 595 694 l 595 198 l 496 198 l 496 694 l 198 694 l 198 99 l 397 99 l 397 198 l 298 198 l 298 298 l 397 298 l 397 198 l 496 198 l 496 99 l 595 99 l 595 0 l 496 0 l 496 99 l 397 99 l 397 0 l 198 0 z "},"R":{"ha":694,"x_min":99,"x_max":595,"o":"m 99 0 l 99 794 l 496 794 l 496 694 l 595 694 l 595 397 l 496 397 l 496 694 l 198 694 l 198 397 l 496 397 l 496 298 l 397 298 l 397 198 l 496 198 l 496 99 l 595 99 l 595 0 l 496 0 l 496 99 l 397 99 l 397 198 l 298 198 l 298 298 l 198 298 l 198 0 l 99 0 z "},"S":{"ha":694,"x_min":99,"x_max":595,"o":"m 99 99 l 198 99 l 198 0 l 496 0 l 496 99 l 595 99 l 595 397 l 496 397 l 496 496 l 198 496 l 198 694 l 496 694 l 496 595 l 595 595 l 595 694 l 496 694 l 496 794 l 198 794 l 198 694 l 99 694 l 99 496 l 198 496 l 198 397 l 496 397 l 496 99 l 198 99 l 198 198 l 99 198 l 99 99 z "},"T":{"ha":694,"x_min":99,"x_max":595,"o":"m 99 794 l 595 794 l 595 694 l 397 694 l 397 0 l 298 0 l 298 694 l 99 694 l 99 794 z "},"U":{"ha":694,"x_min":99,"x_max":595,"o":"m 99 794 l 198 794 l 198 99 l 496 99 l 496 794 l 595 794 l 595 99 l 496 99 l 496 0 l 198 0 l 198 99 l 99 99 l 99 794 z "},"V":{"ha":694,"x_min":99,"x_max":595,"o":"m 99 794 l 198 794 l 198 496 l 298 496 l 298 198 l 397 198 l 397 496 l 496 496 l 496 794 l 595 794 l 595 496 l 496 496 l 496 198 l 397 198 l 397 0 l 298 0 l 298 198 l 198 198 l 198 496 l 99 496 l 99 794 z "},"W":{"ha":694,"x_min":99,"x_max":595,"o":"m 99 794 l 99 0 l 198 0 l 198 99 l 298 99 l 298 198 l 397 198 l 397 99 l 496 99 l 496 0 l 595 0 l 595 794 l 496 794 l 496 198 l 397 198 l 397 298 l 298 298 l 298 198 l 198 198 l 198 794 l 99 794 z "},"X":{"ha":694,"x_min":99,"x_max":595,"o":"m 99 0 l 99 198 l 198 198 l 198 298 l 298 298 l 298 496 l 198 496 l 198 595 l 99 595 l 99 794 l 198 794 l 198 595 l 298 595 l 298 496 l 397 496 l 397 595 l 496 595 l 496 794 l 595 794 l 595 595 l 496 595 l 496 496 l 397 496 l 397 298 l 496 298 l 496 198 l 595 198 l 595 0 l 496 0 l 496 198 l 397 198 l 397 298 l 298 298 l 298 198 l 198 198 l 198 0 l 99 0 z "},"Y":{"ha":694,"x_min":99,"x_max":595,"o":"m 99 794 l 198 794 l 198 595 l 298 595 l 298 397 l 397 397 l 397 595 l 496 595 l 496 794 l 595 794 l 595 595 l 496 595 l 496 397 l 397 397 l 397 0 l 298 0 l 298 397 l 198 397 l 198 595 l 99 595 l 99 794 z "},"Z":{"ha":694,"x_min":99,"x_max":595,"o":"m 99 794 l 595 794 l 595 595 l 496 595 l 496 496 l 397 496 l 397 298 l 298 298 l 298 198 l 198 198 l 198 99 l 595 99 l 595 0 l 99 0 l 99 198 l 198 198 l 198 298 l 298 298 l 298 496 l 397 496 l 397 595 l 496 595 l 496 694 l 99 694 l 99 794 z "},"[":{"ha":694,"x_min":298,"x_max":694,"o":"m 694 794 l 298 794 l 298 0 l 694 0 l 694 99 l 397 99 l 397 694 l 694 694 l 694 794 z "},"\\":{"ha":694,"x_min":0,"x_max":694,"o":"m 0 1091 l 99 1091 l 99 893 l 198 893 l 198 694 l 298 694 l 298 496 l 397 496 l 397 298 l 496 298 l 496 99 l 595 99 l 595 -99 l 694 -99 l 694 -298 l 595 -298 l 595 -99 l 496 -99 l 496 99 l 397 99 l 397 298 l 298 298 l 298 496 l 198 496 l 198 694 l 99 694 l 99 893 l 0 893 l 0 1091 z "},"]":{"ha":694,"x_min":0,"x_max":397,"o":"m 0 794 l 397 794 l 397 0 l 0 0 l 0 99 l 298 99 l 298 694 l 0 694 l 0 794 z "},"^":{"ha":694,"x_min":0,"x_max":694,"o":"m 298 1091 l 397 1091 l 397 992 l 496 992 l 496 794 l 595 794 l 595 595 l 694 595 l 694 397 l 595 397 l 595 595 l 496 595 l 496 794 l 397 794 l 397 992 l 298 992 l 298 794 l 198 794 l 198 595 l 99 595 l 99 397 l 0 397 l 0 595 l 99 595 l 99 794 l 198 794 l 198 992 l 298 992 l 298 1091 z "},"_":{"ha":694,"x_min":0,"x_max":694,"o":"m 0 -298 l 0 -198 l 694 -198 l 694 -298 l 0 -298 z "},"`":{"ha":694,"x_min":198,"x_max":496,"o":"m 298 794 l 298 893 l 198 893 l 198 794 l 298 794 m 298 794 l 298 694 l 397 694 l 397 595 l 496 595 l 496 694 l 397 694 l 397 794 l 298 794 z "},"a":{"ha":694,"x_min":99,"x_max":595,"o":"m 298 496 l 198 496 l 198 397 l 99 397 l 99 496 l 198 496 l 198 595 l 496 595 l 496 496 l 595 496 l 595 99 l 496 99 l 496 298 l 198 298 l 198 99 l 496 99 l 496 0 l 198 0 l 198 99 l 99 99 l 99 298 l 198 298 l 198 397 l 496 397 l 496 496 l 298 496 z "},"b":{"ha":694,"x_min":99,"x_max":595,"o":"m 496 99 l 496 496 l 198 496 l 198 99 l 496 99 m 99 99 l 99 794 l 198 794 l 198 595 l 496 595 l 496 496 l 595 496 l 595 99 l 496 99 l 496 0 l 198 0 l 198 99 l 99 99 z "},"c":{"ha":694,"x_min":99,"x_max":595,"o":"m 99 99 l 99 496 l 198 496 l 198 595 l 496 595 l 496 496 l 595 496 l 595 397 l 496 397 l 496 496 l 198 496 l 198 99 l 496 99 l 496 198 l 595 198 l 595 99 l 496 99 l 496 0 l 198 0 l 198 99 l 99 99 z "},"d":{"ha":694,"x_min":99,"x_max":595,"o":"m 496 99 l 198 99 l 198 496 l 496 496 l 496 99 m 595 99 l 595 794 l 496 794 l 496 595 l 198 595 l 198 496 l 99 496 l 99 99 l 198 99 l 198 0 l 496 0 l 496 99 l 595 99 z "},"e":{"ha":694,"x_min":99,"x_max":595,"o":"m 99 99 l 99 496 l 198 496 l 198 595 l 496 595 l 496 496 l 198 496 l 198 397 l 496 397 l 496 496 l 595 496 l 595 298 l 198 298 l 198 99 l 496 99 l 496 198 l 595 198 l 595 99 l 496 99 l 496 0 l 198 0 l 198 99 l 99 99 z "},"f":{"ha":694,"x_min":99,"x_max":595,"o":"m 99 0 l 99 694 l 198 694 l 198 794 l 496 794 l 496 694 l 595 694 l 595 595 l 496 595 l 496 694 l 198 694 l 198 496 l 496 496 l 496 397 l 198 397 l 198 0 l 99 0 z "},"g":{"ha":694,"x_min":99,"x_max":595,"o":"m 198 198 l 496 198 l 496 496 l 198 496 l 198 198 m 99 -99 l 99 0 l 198 0 l 198 -99 l 496 -99 l 496 99 l 198 99 l 198 198 l 99 198 l 99 496 l 198 496 l 198 595 l 496 595 l 496 496 l 595 496 l 595 -99 l 496 -99 l 496 -198 l 198 -198 l 198 -99 l 99 -99 z "},"h":{"ha":694,"x_min":99,"x_max":595,"o":"m 99 0 l 99 794 l 198 794 l 198 595 l 496 595 l 496 496 l 595 496 l 595 0 l 496 0 l 496 496 l 198 496 l 198 0 l 99 0 z "},"i":{"ha":694,"x_min":298,"x_max":397,"o":"m 298 595 l 298 794 l 397 794 l 397 595 l 298 595 m 298 0 l 298 397 l 397 397 l 397 0 l 298 0 z "},"j":{"ha":694,"x_min":99,"x_max":595,"o":"m 496 397 l 595 397 l 595 -99 l 496 -99 l 496 -198 l 198 -198 l 198 -99 l 99 -99 l 99 0 l 198 0 l 198 -99 l 496 -99 l 496 397 m 595 794 l 496 794 l 496 595 l 595 595 l 595 794 z "},"k":{"ha":694,"x_min":99,"x_max":595,"o":"m 99 0 l 99 794 l 198 794 l 198 397 l 298 397 l 298 496 l 496 496 l 496 595 l 595 595 l 595 496 l 496 496 l 496 397 l 298 397 l 298 198 l 496 198 l 496 99 l 595 99 l 595 0 l 496 0 l 496 99 l 298 99 l 298 198 l 198 198 l 198 0 l 99 0 z "},"l":{"ha":694,"x_min":298,"x_max":397,"o":"m 298 0 l 298 794 l 397 794 l 397 0 l 298 0 z "},"m":{"ha":694,"x_min":99,"x_max":595,"o":"m 99 0 l 99 496 l 198 496 l 198 595 l 298 595 l 298 496 l 397 496 l 397 595 l 496 595 l 496 496 l 595 496 l 595 0 l 496 0 l 496 496 l 397 496 l 397 198 l 298 198 l 298 496 l 198 496 l 198 0 l 99 0 z "},"n":{"ha":694,"x_min":99,"x_max":595,"o":"m 99 496 l 198 496 l 198 595 l 496 595 l 496 496 l 595 496 l 595 0 l 496 0 l 496 496 l 198 496 l 198 0 l 99 0 l 99 496 z "},"o":{"ha":694,"x_min":99,"x_max":595,"o":"m 99 99 l 99 496 l 198 496 l 198 595 l 496 595 l 496 496 l 595 496 l 595 99 l 496 99 l 496 0 l 198 0 l 198 99 l 496 99 l 496 496 l 198 496 l 198 99 l 99 99 z "},"p":{"ha":694,"x_min":99,"x_max":595,"o":"m 496 99 l 496 496 l 198 496 l 198 99 l 496 99 m 99 -198 l 99 496 l 198 496 l 198 595 l 496 595 l 496 496 l 595 496 l 595 99 l 496 99 l 496 0 l 198 0 l 198 -198 l 99 -198 z "},"q":{"ha":694,"x_min":99,"x_max":595,"o":"m 198 99 l 198 496 l 496 496 l 496 99 l 198 99 m 595 -198 l 595 496 l 496 496 l 496 595 l 198 595 l 198 496 l 99 496 l 99 99 l 198 99 l 198 0 l 496 0 l 496 -198 l 595 -198 z "},"r":{"ha":694,"x_min":99,"x_max":595,"o":"m 99 0 l 99 496 l 198 496 l 198 595 l 496 595 l 496 496 l 595 496 l 595 397 l 496 397 l 496 496 l 198 496 l 198 0 l 99 0 z "},"s":{"ha":694,"x_min":99,"x_max":595,"o":"m 99 99 l 99 198 l 198 198 l 198 99 l 496 99 l 496 298 l 198 298 l 198 397 l 99 397 l 99 496 l 198 496 l 198 595 l 496 595 l 496 496 l 595 496 l 595 397 l 496 397 l 496 496 l 198 496 l 198 397 l 496 397 l 496 298 l 595 298 l 595 99 l 496 99 l 496 0 l 198 0 l 198 99 l 99 99 z "},"t":{"ha":694,"x_min":99,"x_max":595,"o":"m 99 794 l 198 794 l 198 496 l 496 496 l 496 397 l 198 397 l 198 99 l 496 99 l 496 198 l 595 198 l 595 99 l 496 99 l 496 0 l 198 0 l 198 99 l 99 99 l 99 794 z "},"u":{"ha":694,"x_min":99,"x_max":595,"o":"m 99 595 l 198 595 l 198 99 l 496 99 l 496 595 l 595 595 l 595 99 l 496 99 l 496 0 l 198 0 l 198 99 l 99 99 l 99 595 z "},"v":{"ha":694,"x_min":99,"x_max":595,"o":"m 99 595 l 99 397 l 198 397 l 198 198 l 298 198 l 298 0 l 397 0 l 397 198 l 496 198 l 496 397 l 595 397 l 595 595 l 496 595 l 496 397 l 397 397 l 397 198 l 298 198 l 298 397 l 198 397 l 198 595 l 99 595 z "},"w":{"ha":694,"x_min":99,"x_max":595,"o":"m 99 595 l 99 99 l 198 99 l 198 0 l 298 0 l 298 99 l 397 99 l 397 0 l 496 0 l 496 99 l 595 99 l 595 595 l 496 595 l 496 99 l 397 99 l 397 397 l 298 397 l 298 99 l 198 99 l 198 595 l 99 595 z "},"x":{"ha":694,"x_min":99,"x_max":595,"o":"m 99 595 l 198 595 l 198 496 l 298 496 l 298 397 l 397 397 l 397 496 l 496 496 l 496 595 l 595 595 l 595 496 l 496 496 l 496 397 l 397 397 l 397 198 l 496 198 l 496 99 l 595 99 l 595 0 l 496 0 l 496 99 l 397 99 l 397 198 l 298 198 l 298 99 l 198 99 l 198 0 l 99 0 l 99 99 l 198 99 l 198 198 l 298 198 l 298 397 l 198 397 l 198 496 l 99 496 l 99 595 z "},"y":{"ha":694,"x_min":99,"x_max":595,"o":"m 99 595 l 198 595 l 198 198 l 496 198 l 496 595 l 595 595 l 595 -99 l 496 -99 l 496 -198 l 198 -198 l 198 -99 l 99 -99 l 99 0 l 198 0 l 198 -99 l 496 -99 l 496 99 l 198 99 l 198 198 l 99 198 l 99 595 z "},"z":{"ha":694,"x_min":99,"x_max":595,"o":"m 99 0 l 99 99 l 198 99 l 198 198 l 298 198 l 298 397 l 397 397 l 397 496 l 99 496 l 99 595 l 595 595 l 595 496 l 496 496 l 496 397 l 397 397 l 397 198 l 298 198 l 298 99 l 595 99 l 595 0 l 99 0 z "},"{":{"ha":694,"x_min":99,"x_max":694,"o":"m 694 992 l 496 992 l 496 893 l 397 893 l 397 595 l 198 595 l 198 496 l 99 496 l 99 298 l 198 298 l 198 198 l 397 198 l 397 -99 l 496 -99 l 496 -198 l 694 -198 l 694 -99 l 496 -99 l 496 198 l 397 198 l 397 298 l 198 298 l 198 496 l 397 496 l 397 595 l 496 595 l 496 893 l 694 893 l 694 992 z "},"|":{"ha":694,"x_min":298,"x_max":397,"o":"m 298 1091 l 397 1091 l 397 -298 l 298 -298 l 298 1091 z "},"}":{"ha":694,"x_min":0,"x_max":595,"o":"m 0 992 l 198 992 l 198 893 l 198 595 l 298 595 l 496 595 l 496 496 l 595 496 l 595 298 l 496 298 l 496 198 l 298 198 l 298 -99 l 198 -99 l 198 -198 l 0 -198 l 0 -99 l 198 -99 l 198 198 l 298 198 l 298 298 l 496 298 l 496 496 l 298 496 l 298 595 l 298 893 l 198 893 l 0 893 l 0 992 z "},"~":{"ha":694,"x_min":0,"x_max":694,"o":"m 0 893 l 0 992 l 99 992 l 99 1091 l 298 1091 l 298 992 l 397 992 l 397 794 l 595 794 l 595 893 l 694 893 l 694 794 l 595 794 l 595 694 l 397 694 l 397 794 l 298 794 l 298 992 l 99 992 l 99 893 l 0 893 z "},"":{"ha":694,"x_min":0,"x_max":0,"o":""},"":{"ha":694,"x_min":0,"x_max":0,"o":""},"":{"ha":694,"x_min":0,"x_max":0,"o":""},"":{"ha":694,"x_min":0,"x_max":0,"o":""},"":{"ha":694,"x_min":0,"x_max":0,"o":""},"":{"ha":694,"x_min":0,"x_max":0,"o":""},"":{"ha":694,"x_min":0,"x_max":0,"o":""},"":{"ha":694,"x_min":0,"x_max":0,"o":""},"":{"ha":694,"x_min":0,"x_max":0,"o":""},"":{"ha":694,"x_min":0,"x_max":0,"o":""},"":{"ha":694,"x_min":0,"x_max":0,"o":""},"":{"ha":694,"x_min":0,"x_max":0,"o":""},"":{"ha":694,"x_min":0,"x_max":0,"o":""},"":{"ha":694,"x_min":0,"x_max":0,"o":""},"":{"ha":694,"x_min":0,"x_max":0,"o":""},"":{"ha":694,"x_min":0,"x_max":0,"o":""},"":{"ha":694,"x_min":0,"x_max":0,"o":""},"":{"ha":694,"x_min":0,"x_max":0,"o":""},"":{"ha":694,"x_min":0,"x_max":0,"o":""},"":{"ha":694,"x_min":0,"x_max":0,"o":""},"":{"ha":694,"x_min":0,"x_max":0,"o":""},"":{"ha":694,"x_min":0,"x_max":0,"o":""},"":{"ha":694,"x_min":0,"x_max":0,"o":""},"":{"ha":694,"x_min":0,"x_max":0,"o":""},"":{"ha":694,"x_min":0,"x_max":0,"o":""},"":{"ha":694,"x_min":0,"x_max":0,"o":""},"":{"ha":694,"x_min":0,"x_max":0,"o":""},"":{"ha":694,"x_min":0,"x_max":0,"o":""},"":{"ha":694,"x_min":0,"x_max":0,"o":""},"":{"ha":694,"x_min":0,"x_max":0,"o":""},"":{"ha":694,"x_min":0,"x_max":0,"o":""},"":{"ha":694,"x_min":0,"x_max":0,"o":""},"":{"ha":694,"x_min":0,"x_max":0,"o":""}," ":{"ha":694,"x_min":0,"x_max":0,"o":""},"¡":{"ha":694,"x_min":298,"x_max":397,"o":"m 298 -298 l 298 397 l 397 397 l 397 -298 l 298 -298 m 298 595 l 298 794 l 397 794 l 397 595 l 298 595 z "},"¢":{"ha":694,"x_min":99,"x_max":595,"o":"m 298 794 l 397 794 l 397 595 l 496 595 l 496 496 l 198 496 l 198 595 l 298 595 l 298 794 m 496 496 l 496 397 l 595 397 l 595 496 l 496 496 m 198 496 l 198 99 l 99 99 l 99 496 l 198 496 m 198 99 l 496 99 l 496 0 l 397 0 l 397 -198 l 298 -198 l 298 0 l 198 0 l 198 99 m 496 99 l 496 198 l 595 198 l 595 99 l 496 99 z "},"£":{"ha":694,"x_min":99,"x_max":595,"o":"m 198 794 l 496 794 l 496 694 l 198 694 l 198 794 m 496 694 l 496 595 l 595 595 l 595 694 l 496 694 m 198 694 l 198 496 l 496 496 l 496 397 l 198 397 l 198 99 l 595 99 l 595 0 l 198 0 l 99 0 l 99 694 l 198 694 z "},"¤":{"ha":694,"x_min":0,"x_max":496,"o":"m 0 595 l 99 595 l 99 496 l 198 496 l 198 397 l 99 397 l 99 298 l 198 298 l 198 198 l 298 198 l 298 298 l 397 298 l 397 397 l 298 397 l 298 496 l 198 496 l 198 595 l 298 595 l 298 496 l 397 496 l 397 595 l 496 595 l 496 496 l 397 496 l 397 397 l 496 397 l 496 298 l 397 298 l 397 198 l 496 198 l 496 99 l 397 99 l 397 198 l 298 198 l 298 99 l 198 99 l 198 198 l 99 198 l 99 99 l 0 99 l 0 198 l 99 198 l 99 298 l 0 298 l 0 397 l 99 397 l 99 496 l 0 496 l 0 595 z "},"¥":{"ha":694,"x_min":99,"x_max":595,"o":"m 99 992 l 198 992 l 198 794 l 99 794 l 99 992 m 198 794 l 298 794 l 298 595 l 198 595 l 198 794 m 298 595 l 397 595 l 397 496 l 595 496 l 595 397 l 397 397 l 397 298 l 595 298 l 595 198 l 397 198 l 397 0 l 298 0 l 298 198 l 99 198 l 99 298 l 298 298 l 298 397 l 99 397 l 99 496 l 298 496 l 298 595 m 397 595 l 397 794 l 496 794 l 496 595 l 397 595 m 496 794 l 496 992 l 595 992 l 595 794 l 496 794 z "},"¦":{"ha":694,"x_min":198,"x_max":298,"o":"m 198 -99 l 198 198 l 298 198 l 298 -99 l 198 -99 m 198 893 l 198 595 l 298 595 l 298 893 l 198 893 z "},"§":{"ha":694,"x_min":0,"x_max":496,"o":"m 496 694 l 496 794 l 397 794 l 397 893 l 99 893 l 99 794 l 0 794 l 0 595 l 99 595 l 99 496 l 397 496 l 397 298 l 99 298 l 99 496 l 0 496 l 0 298 l 99 298 l 99 198 l 397 198 l 397 0 l 99 0 l 99 99 l 0 99 l 0 0 l 99 0 l 99 -99 l 397 -99 l 397 0 l 496 0 l 496 198 l 397 198 l 397 298 l 496 298 l 496 496 l 397 496 l 397 595 l 99 595 l 99 794 l 397 794 l 397 694 l 496 694 z "},"¨":{"ha":694,"x_min":99,"x_max":397,"o":"m 397 893 l 298 893 l 298 694 l 397 694 l 397 893 m 99 893 l 99 694 l 198 694 l 198 893 l 99 893 z "},"©":{"ha":694,"x_min":0,"x_max":496,"o":"m 397 595 l 298 595 l 298 694 l 198 694 l 198 595 l 99 595 l 99 198 l 198 198 l 198 99 l 298 99 l 298 198 l 397 198 l 397 298 l 298 298 l 298 198 l 198 198 l 198 595 l 298 595 l 298 496 l 397 496 l 397 595 m 0 99 l 99 99 l 99 0 l 397 0 l 397 99 l 496 99 l 496 0 l 397 0 l 397 -99 l 99 -99 l 99 0 l 0 0 l 0 99 m 0 694 l 0 794 l 99 794 l 99 893 l 397 893 l 397 794 l 496 794 l 496 694 l 397 694 l 397 794 l 99 794 l 99 694 l 0 694 z "},"ª":{"ha":694,"x_min":0,"x_max":694,"o":"m 99 1091 l 496 1091 l 496 992 l 99 992 l 99 1091 m 496 992 l 496 893 l 99 893 l 99 794 l 99 694 l 198 694 l 198 794 l 496 794 l 496 694 l 595 694 l 595 992 l 496 992 m 496 694 l 198 694 l 198 595 l 496 595 l 496 694 m 0 496 l 694 496 l 694 397 l 0 397 l 0 496 z "},"«":{"ha":694,"x_min":99,"x_max":694,"o":"m 298 1091 l 397 1091 l 397 794 l 298 794 l 298 1091 m 298 794 l 298 496 l 198 496 l 198 794 l 298 794 m 198 496 l 198 298 l 99 298 l 99 496 l 198 496 m 198 298 l 298 298 l 298 0 l 198 0 l 198 298 m 298 0 l 397 0 l 397 -298 l 298 -298 l 298 0 m 595 1091 l 694 1091 l 694 794 l 595 794 l 595 1091 m 595 794 l 595 496 l 496 496 l 496 794 l 595 794 m 496 496 l 496 298 l 397 298 l 397 496 l 496 496 m 496 298 l 595 298 l 595 0 l 496 0 l 496 298 m 595 0 l 694 0 l 694 -298 l 595 -298 l 595 0 z "},"¬":{"ha":694,"x_min":0,"x_max":694,"o":"m 694 794 l 694 0 l 595 0 l 595 694 l 0 694 l 0 794 l 694 794 z "},"­":{"ha":694,"x_min":99,"x_max":397,"o":"m 99 397 l 99 298 l 397 298 l 397 397 l 99 397 z "},"®":{"ha":694,"x_min":0,"x_max":496,"o":"m 0 694 l 0 794 l 99 794 l 99 893 l 397 893 l 397 794 l 496 794 l 496 694 l 397 694 l 397 794 l 99 794 l 99 694 l 298 694 l 298 595 l 198 595 l 198 397 l 298 397 l 298 595 l 397 595 l 397 397 l 298 397 l 298 298 l 397 298 l 397 99 l 298 99 l 298 298 l 198 298 l 198 99 l 99 99 l 99 694 l 0 694 m 397 99 l 496 99 l 496 0 l 397 0 l 397 99 m 397 0 l 397 -99 l 99 -99 l 99 0 l 397 0 m 99 99 l 99 0 l 0 0 l 0 99 l 99 99 z "},"¯":{"ha":694,"x_min":0,"x_max":694,"o":"m 0 1091 l 694 1091 l 694 992 l 0 992 l 0 1091 z "},"°":{"ha":694,"x_min":198,"x_max":496,"o":"m 298 893 l 397 893 l 397 794 l 298 794 l 298 893 m 397 794 l 397 694 l 496 694 l 496 794 l 397 794 m 397 694 l 298 694 l 298 595 l 397 595 l 397 694 m 298 694 l 298 794 l 198 794 l 198 694 l 298 694 z "},"±":{"ha":694,"x_min":0,"x_max":694,"o":"m 298 794 l 397 794 l 397 496 l 595 496 l 595 397 l 397 397 l 397 99 l 694 99 l 694 0 l 397 0 l 298 0 l 0 0 l 0 99 l 298 99 l 298 397 l 99 397 l 99 496 l 298 496 l 298 794 z "},"²":{"ha":694,"x_min":99,"x_max":496,"o":"m 198 992 l 397 992 l 397 893 l 198 893 l 198 992 m 397 893 l 397 794 l 496 794 l 496 893 l 397 893 m 397 794 l 298 794 l 298 694 l 397 694 l 397 794 m 298 694 l 198 694 l 198 595 l 99 595 l 99 496 l 496 496 l 496 595 l 298 595 l 298 694 m 198 893 l 99 893 l 99 794 l 198 794 l 198 893 z "},"³":{"ha":694,"x_min":99,"x_max":298,"o":"m 99 794 l 298 794 l 298 298 l 99 298 l 99 397 l 198 397 l 198 496 l 99 496 l 99 595 l 198 595 l 198 694 l 99 694 l 99 794 z "},"´":{"ha":694,"x_min":99,"x_max":397,"o":"m 99 595 l 99 694 l 198 694 l 198 794 l 298 794 l 298 893 l 397 893 l 397 794 l 298 794 l 298 694 l 198 694 l 198 595 l 99 595 z "},"µ":{"ha":694,"x_min":99,"x_max":595,"o":"m 99 595 l 198 595 l 198 99 l 496 99 l 496 0 l 198 0 l 198 -198 l 99 -198 l 99 595 m 496 99 l 496 595 l 595 595 l 595 99 l 496 99 z "},"¶":{"ha":694,"x_min":0,"x_max":496,"o":"m 496 -99 l 496 893 l 198 893 l 198 794 l 99 794 l 99 694 l 0 694 l 0 397 l 99 397 l 99 298 l 198 298 l 198 -99 l 298 -99 l 298 794 l 397 794 l 397 -99 l 496 -99 z "},"·":{"ha":694,"x_min":298,"x_max":397,"o":"m 298 298 l 298 496 l 397 496 l 397 298 l 298 298 z "},"¸":{"ha":694,"x_min":198,"x_max":397,"o":"m 298 -99 l 298 0 l 397 0 l 397 99 l 298 99 l 298 198 l 198 198 l 198 99 l 298 99 l 298 0 l 198 0 l 198 -99 l 298 -99 z "},"¹":{"ha":694,"x_min":99,"x_max":298,"o":"m 298 794 l 298 397 l 198 397 l 198 595 l 99 595 l 99 694 l 198 694 l 198 794 l 298 794 z "},"º":{"ha":694,"x_min":0,"x_max":694,"o":"m 198 1091 l 496 1091 l 496 992 l 198 992 l 198 1091 m 496 992 l 595 992 l 595 694 l 496 694 l 496 992 m 496 694 l 198 694 l 198 595 l 496 595 l 496 694 m 198 694 l 99 694 l 99 992 l 198 992 l 198 694 m 0 496 l 694 496 l 694 397 l 0 397 l 0 496 z "},"»":{"ha":694,"x_min":0,"x_max":694,"o":"m 0 1091 l 99 1091 l 99 794 l 0 794 l 0 1091 m 99 794 l 198 794 l 198 496 l 99 496 l 99 794 m 198 496 l 298 496 l 298 298 l 198 298 l 198 496 m 198 298 l 198 0 l 99 0 l 99 298 l 198 298 m 99 0 l 99 -298 l 0 -298 l 0 0 l 99 0 m 397 1091 l 496 1091 l 496 794 l 397 794 l 397 1091 m 496 794 l 595 794 l 595 496 l 496 496 l 496 794 m 595 496 l 694 496 l 694 298 l 595 298 l 595 496 m 595 298 l 595 0 l 496 0 l 496 298 l 595 298 m 496 0 l 496 -298 l 397 -298 l 397 0 l 496 0 z "},"¼":{"ha":694,"x_min":0,"x_max":694,"o":"m 99 1091 l 298 1091 l 298 595 l 198 595 l 198 992 l 99 992 l 99 1091 m 99 992 l 0 992 l 0 893 l 99 893 l 99 992 m 595 1091 l 694 1091 l 694 893 l 595 893 l 595 1091 m 595 893 l 595 694 l 496 694 l 496 893 l 595 893 m 496 694 l 397 694 l 397 496 l 496 496 l 496 694 m 397 496 l 397 298 l 298 298 l 298 496 l 397 496 m 298 298 l 198 298 l 198 99 l 298 99 l 298 298 m 198 99 l 99 99 l 99 -99 l 198 -99 l 198 99 m 99 -99 l 99 -298 l 0 -298 l 0 -99 l 99 -99 m 595 298 l 694 298 l 694 -298 l 595 -298 l 595 -99 l 298 -99 l 298 0 l 397 0 l 397 99 l 496 99 l 496 0 l 595 0 l 595 99 l 496 99 l 496 198 l 595 198 l 595 298 z "},"½":{"ha":694,"x_min":0,"x_max":694,"o":"m 99 1091 l 298 1091 l 298 595 l 198 595 l 198 992 l 99 992 l 99 1091 m 99 992 l 0 992 l 0 893 l 99 893 l 99 992 m 595 1091 l 694 1091 l 694 893 l 595 893 l 595 1091 m 595 893 l 595 694 l 496 694 l 496 893 l 595 893 m 496 694 l 397 694 l 397 496 l 496 496 l 496 694 m 397 496 l 397 298 l 298 298 l 298 496 l 397 496 m 298 298 l 298 99 l 198 99 l 198 298 l 298 298 m 298 99 l 298 0 l 397 0 l 397 99 l 298 99 m 397 99 l 397 198 l 595 198 l 595 99 l 397 99 m 595 99 l 595 0 l 694 0 l 694 99 l 595 99 m 595 0 l 496 0 l 496 -99 l 595 -99 l 595 0 m 496 -99 l 397 -99 l 397 -198 l 298 -198 l 298 -298 l 694 -298 l 694 -198 l 496 -198 l 496 -99 m 198 99 l 99 99 l 99 -99 l 198 -99 l 198 99 m 99 -99 l 0 -99 l 0 -298 l 99 -298 l 99 -99 z "},"¾":{"ha":694,"x_min":0,"x_max":496,"o":"m 0 893 l 198 893 l 198 496 l 298 496 l 298 694 l 397 694 l 397 893 l 496 893 l 496 694 l 397 694 l 397 496 l 298 496 l 298 298 l 198 298 l 198 99 l 298 99 l 298 198 l 397 198 l 397 298 l 496 298 l 496 -99 l 397 -99 l 397 0 l 198 0 l 198 99 l 99 99 l 99 -99 l 0 -99 l 0 99 l 99 99 l 99 298 l 198 298 l 198 397 l 0 397 l 0 496 l 99 496 l 99 595 l 0 595 l 0 694 l 99 694 l 99 794 l 0 794 l 0 893 z "},"¿":{"ha":694,"x_min":99,"x_max":595,"o":"m 298 794 l 397 794 l 397 595 l 298 595 l 298 794 m 298 397 l 397 397 l 397 198 l 298 198 l 298 397 m 298 198 l 198 198 l 198 99 l 298 99 l 298 198 m 198 99 l 198 -198 l 99 -198 l 99 99 l 198 99 m 198 -198 l 198 -298 l 496 -298 l 496 -198 l 198 -198 m 496 -198 l 496 -99 l 595 -99 l 595 -198 l 496 -198 z "},"À":{"ha":694,"x_min":99,"x_max":595,"o":"m 198 1091 l 298 1091 l 298 992 l 397 992 l 397 893 l 496 893 l 496 794 l 397 794 l 397 893 l 298 893 l 298 992 l 198 992 l 198 1091 m 99 0 l 99 595 l 198 595 l 198 694 l 496 694 l 496 595 l 595 595 l 595 0 l 496 0 l 496 198 l 198 198 l 198 0 l 99 0 m 496 298 l 496 595 l 198 595 l 198 298 l 496 298 z "},"Á":{"ha":694,"x_min":99,"x_max":595,"o":"m 198 794 l 298 794 l 298 893 l 397 893 l 397 992 l 496 992 l 496 1091 l 397 1091 l 397 992 l 298 992 l 298 893 l 198 893 l 198 794 m 99 0 l 99 595 l 198 595 l 198 694 l 496 694 l 496 595 l 595 595 l 595 0 l 496 0 l 496 198 l 198 198 l 198 0 l 99 0 m 496 298 l 496 595 l 198 595 l 198 298 l 496 298 z "},"Â":{"ha":694,"x_min":99,"x_max":595,"o":"m 298 1091 l 397 1091 l 397 992 l 496 992 l 496 893 l 595 893 l 595 794 l 496 794 l 496 893 l 397 893 l 397 992 l 298 992 l 298 893 l 198 893 l 198 794 l 99 794 l 99 893 l 198 893 l 198 992 l 298 992 l 298 1091 m 99 0 l 99 595 l 198 595 l 198 694 l 496 694 l 496 595 l 595 595 l 595 0 l 496 0 l 496 298 l 198 298 l 198 0 l 99 0 m 496 397 l 496 595 l 198 595 l 198 397 l 496 397 z "},"Ã":{"ha":694,"x_min":0,"x_max":694,"o":"m 0 992 l 99 992 l 99 1091 l 298 1091 l 298 992 l 397 992 l 397 893 l 595 893 l 595 992 l 694 992 l 694 893 l 595 893 l 595 794 l 397 794 l 397 893 l 298 893 l 298 992 l 99 992 l 99 893 l 0 893 l 0 992 m 99 0 l 99 595 l 198 595 l 198 694 l 496 694 l 496 595 l 595 595 l 595 0 l 496 0 l 496 298 l 198 298 l 198 0 l 99 0 m 496 397 l 496 595 l 198 595 l 198 397 l 496 397 z "},"Ä":{"ha":694,"x_min":99,"x_max":595,"o":"m 496 992 l 496 794 l 595 794 l 595 992 l 496 992 m 198 992 l 198 794 l 99 794 l 99 992 l 198 992 m 99 0 l 99 595 l 198 595 l 198 694 l 496 694 l 496 595 l 595 595 l 595 0 l 496 0 l 496 298 l 198 298 l 198 0 l 99 0 m 496 397 l 496 595 l 198 595 l 198 397 l 496 397 z "},"Å":{"ha":694,"x_min":99,"x_max":595,"o":"m 99 0 l 99 595 l 198 595 l 198 397 l 496 397 l 496 595 l 198 595 l 198 694 l 298 694 l 298 794 l 198 794 l 198 893 l 298 893 l 298 992 l 397 992 l 397 893 l 298 893 l 298 794 l 397 794 l 397 893 l 496 893 l 496 794 l 397 794 l 397 694 l 496 694 l 496 595 l 595 595 l 595 0 l 496 0 l 496 298 l 198 298 l 198 0 l 99 0 z "},"Æ":{"ha":694,"x_min":0,"x_max":694,"o":"m 99 794 l 694 794 l 694 694 l 397 694 l 397 496 l 595 496 l 595 397 l 397 397 l 397 99 l 694 99 l 694 0 l 298 0 l 298 298 l 99 298 l 99 0 l 0 0 l 0 694 l 99 694 l 99 397 l 298 397 l 298 694 l 99 694 l 99 794 z "},"Ç":{"ha":694,"x_min":99,"x_max":595,"o":"m 595 198 l 595 99 l 496 99 l 496 0 l 397 0 l 397 -99 l 496 -99 l 496 -198 l 397 -198 l 397 -298 l 298 -298 l 298 -198 l 397 -198 l 397 -99 l 298 -99 l 298 0 l 198 0 l 198 99 l 99 99 l 99 694 l 198 694 l 198 794 l 496 794 l 496 694 l 595 694 l 595 595 l 496 595 l 496 694 l 198 694 l 198 99 l 496 99 l 496 198 l 595 198 z "},"È":{"ha":694,"x_min":0,"x_max":397,"o":"m 99 893 l 99 794 l 198 794 l 198 694 l 298 694 l 298 794 l 198 794 l 198 893 l 99 893 m 0 595 l 397 595 l 397 496 l 99 496 l 99 397 l 298 397 l 298 298 l 99 298 l 99 99 l 397 99 l 397 0 l 0 0 l 0 595 z "},"É":{"ha":694,"x_min":99,"x_max":595,"o":"m 397 992 l 496 992 l 496 893 l 397 893 l 397 992 m 397 893 l 298 893 l 298 794 l 397 794 l 397 893 m 298 794 l 198 794 l 198 694 l 298 694 l 298 794 m 99 595 l 595 595 l 595 496 l 198 496 l 198 397 l 496 397 l 496 298 l 198 298 l 198 99 l 595 99 l 595 0 l 99 0 l 99 595 z "},"Ê":{"ha":694,"x_min":0,"x_max":397,"o":"m 0 694 l 0 794 l 99 794 l 99 893 l 298 893 l 298 794 l 397 794 l 397 694 l 298 694 l 298 794 l 99 794 l 99 694 l 0 694 m 0 595 l 397 595 l 397 496 l 99 496 l 99 397 l 298 397 l 298 298 l 99 298 l 99 99 l 397 99 l 397 0 l 0 0 l 0 595 z "},"Ë":{"ha":694,"x_min":0,"x_max":397,"o":"m 298 694 l 298 893 l 397 893 l 397 694 l 298 694 m 0 694 l 0 893 l 99 893 l 99 694 l 0 694 m 0 595 l 397 595 l 397 496 l 99 496 l 99 397 l 298 397 l 298 298 l 99 298 l 99 99 l 397 99 l 397 0 l 0 0 l 0 595 z "},"Ì":{"ha":694,"x_min":99,"x_max":397,"o":"m 99 893 l 198 893 l 198 794 l 298 794 l 298 694 l 198 694 l 198 794 l 99 794 l 99 893 m 99 595 l 397 595 l 397 496 l 298 496 l 298 99 l 397 99 l 397 0 l 99 0 l 99 99 l 198 99 l 198 496 l 99 496 l 99 595 z "},"Í":{"ha":694,"x_min":99,"x_max":397,"o":"m 99 694 l 99 794 l 198 794 l 198 893 l 298 893 l 298 794 l 198 794 l 198 694 l 99 694 m 99 595 l 397 595 l 397 496 l 298 496 l 298 99 l 397 99 l 397 0 l 99 0 l 99 99 l 198 99 l 198 496 l 99 496 l 99 595 z "},"Î":{"ha":694,"x_min":99,"x_max":397,"o":"m 99 694 l 99 794 l 198 794 l 198 893 l 298 893 l 298 794 l 397 794 l 397 694 l 298 694 l 298 794 l 198 794 l 198 694 l 99 694 m 397 595 m 99 595 m 99 595 l 397 595 l 397 496 l 298 496 l 298 99 l 397 99 l 397 0 l 99 0 l 99 99 l 198 99 l 198 496 l 99 496 l 99 595 z "},"Ï":{"ha":694,"x_min":0,"x_max":397,"o":"m 0 694 l 0 794 l 99 794 l 99 893 l 198 893 l 198 794 l 298 794 l 298 893 l 397 893 l 397 794 l 298 794 l 298 694 l 198 694 l 198 794 l 99 794 l 99 694 l 0 694 m 99 595 l 397 595 l 397 496 l 298 496 l 298 99 l 397 99 l 397 0 l 99 0 l 99 99 l 198 99 l 198 496 l 99 496 l 99 595 z "},"Ð":{"ha":694,"x_min":0,"x_max":496,"o":"m 99 694 l 397 694 l 397 595 l 198 595 l 198 397 l 298 397 l 298 298 l 198 298 l 198 99 l 397 99 l 397 595 l 496 595 l 496 99 l 397 99 l 397 0 l 99 0 l 99 298 l 0 298 l 0 397 l 99 397 l 99 694 z "},"Ñ":{"ha":694,"x_min":0,"x_max":694,"o":"m 99 1091 l 298 1091 l 298 992 l 99 992 l 99 1091 m 298 992 l 298 794 l 397 794 l 397 992 l 298 992 m 397 794 l 397 694 l 595 694 l 595 794 l 397 794 m 595 794 l 694 794 l 694 893 l 595 893 l 595 794 m 99 992 l 0 992 l 0 893 l 99 893 l 99 992 m 99 595 l 198 595 l 198 496 l 298 496 l 298 397 l 198 397 l 198 0 l 99 0 l 99 595 m 298 397 l 397 397 l 397 198 l 298 198 l 298 397 m 397 198 l 496 198 l 496 595 l 595 595 l 595 0 l 496 0 l 496 99 l 397 99 l 397 198 z "},"Ò":{"ha":694,"x_min":0,"x_max":397,"o":"m 99 893 l 198 893 l 198 794 l 298 794 l 298 694 l 198 694 l 198 794 l 99 794 l 99 893 m 99 99 l 298 99 l 298 496 l 99 496 l 99 99 m 99 0 l 99 99 l 0 99 l 0 496 l 99 496 l 99 595 l 298 595 l 298 496 l 397 496 l 397 99 l 298 99 l 298 0 l 99 0 z "},"Ó":{"ha":694,"x_min":0,"x_max":397,"o":"m 99 893 l 198 893 l 198 794 l 298 794 l 298 694 l 198 694 l 198 794 l 99 794 l 99 893 m 99 99 l 298 99 l 298 496 l 99 496 l 99 99 m 99 0 l 99 99 l 0 99 l 0 496 l 99 496 l 99 595 l 298 595 l 298 496 l 397 496 l 397 99 l 298 99 l 298 0 l 99 0 z "},"Ô":{"ha":694,"x_min":0,"x_max":397,"o":"m 0 694 l 0 794 l 99 794 l 99 893 l 298 893 l 298 794 l 397 794 l 397 694 l 298 694 l 298 794 l 99 794 l 99 694 l 0 694 m 99 99 l 298 99 l 298 496 l 99 496 l 99 99 m 99 0 l 99 99 l 0 99 l 0 496 l 99 496 l 99 595 l 298 595 l 298 496 l 397 496 l 397 99 l 298 99 l 298 0 l 99 0 z "},"Õ":{"ha":694,"x_min":0,"x_max":397,"o":"m 0 694 l 0 794 l 99 794 l 99 893 l 198 893 l 198 794 l 298 794 l 298 893 l 397 893 l 397 794 l 298 794 l 298 694 l 198 694 l 198 794 l 99 794 l 99 694 l 0 694 m 99 99 l 298 99 l 298 496 l 99 496 l 99 99 m 99 0 l 99 99 l 0 99 l 0 496 l 99 496 l 99 595 l 298 595 l 298 496 l 397 496 l 397 99 l 298 99 l 298 0 l 99 0 z "},"Ö":{"ha":694,"x_min":99,"x_max":595,"o":"m 99 992 l 198 992 l 198 794 l 99 794 l 99 992 m 496 992 l 595 992 l 595 794 l 496 794 l 496 992 m 198 694 l 496 694 l 496 595 l 198 595 l 198 694 m 496 595 l 595 595 l 595 99 l 496 99 l 496 595 m 496 99 l 198 99 l 198 0 l 496 0 l 496 99 m 198 99 l 99 99 l 99 595 l 198 595 l 198 99 z "},"×":{"ha":694,"x_min":0,"x_max":496,"o":"m 0 893 l 99 893 l 99 694 l 198 694 l 198 496 l 298 496 l 298 694 l 397 694 l 397 893 l 496 893 l 496 694 l 397 694 l 397 496 l 298 496 l 298 298 l 397 298 l 397 99 l 496 99 l 496 -99 l 397 -99 l 397 99 l 298 99 l 298 298 l 198 298 l 198 99 l 99 99 l 99 -99 l 0 -99 l 0 99 l 99 99 l 99 298 l 198 298 l 198 496 l 99 496 l 99 694 l 0 694 l 0 893 z "},"Ø":{"ha":694,"x_min":0,"x_max":496,"o":"m 0 -99 l 0 99 l 99 99 l 99 298 l 198 298 l 198 496 l 298 496 l 298 694 l 99 694 l 99 298 l 0 298 l 0 694 l 99 694 l 99 794 l 298 794 l 298 694 l 397 694 l 397 893 l 496 893 l 496 694 l 397 694 l 397 496 l 298 496 l 298 298 l 198 298 l 198 99 l 397 99 l 397 496 l 496 496 l 496 99 l 397 99 l 397 0 l 198 0 l 198 99 l 99 99 l 99 -99 l 0 -99 z "},"Ù":{"ha":694,"x_min":0,"x_max":397,"o":"m 99 893 l 198 893 l 198 794 l 298 794 l 298 694 l 198 694 l 198 794 l 99 794 l 99 893 m 99 0 l 99 99 l 0 99 l 0 595 l 99 595 l 99 99 l 298 99 l 298 595 l 397 595 l 397 99 l 298 99 l 298 0 l 99 0 z "},"Ú":{"ha":694,"x_min":0,"x_max":397,"o":"m 99 694 l 99 794 l 198 794 l 198 893 l 298 893 l 298 794 l 198 794 l 198 694 l 99 694 m 99 0 l 99 99 l 0 99 l 0 595 l 99 595 l 99 99 l 298 99 l 298 595 l 397 595 l 397 99 l 298 99 l 298 0 l 99 0 z "},"Û":{"ha":694,"x_min":0,"x_max":397,"o":"m 0 694 l 0 794 l 99 794 l 99 893 l 298 893 l 298 794 l 397 794 l 397 694 l 298 694 l 298 794 l 99 794 l 99 694 l 0 694 m 99 99 l 0 99 l 0 595 l 99 595 l 99 99 m 99 99 l 298 99 l 298 595 l 397 595 l 397 99 l 298 99 l 298 0 l 99 0 l 99 99 z "},"Ü":{"ha":694,"x_min":99,"x_max":595,"o":"m 99 992 l 198 992 l 198 794 l 99 794 l 99 992 m 496 992 l 595 992 l 595 794 l 496 794 l 496 992 m 99 595 l 198 595 l 198 99 l 99 99 l 99 595 m 198 99 l 198 0 l 496 0 l 496 99 l 198 99 m 496 99 l 496 595 l 595 595 l 595 99 l 496 99 z "},"Ý":{"ha":694,"x_min":0,"x_max":397,"o":"m 99 893 l 198 893 l 198 794 l 298 794 l 298 694 l 198 694 l 198 794 l 99 794 l 99 893 m 0 595 l 99 595 l 99 397 l 298 397 l 298 595 l 397 595 l 397 99 l 298 99 l 298 0 l 99 0 l 99 99 l 0 99 l 0 198 l 99 198 l 99 99 l 298 99 l 298 298 l 99 298 l 99 397 l 0 397 l 0 595 z "},"Þ":{"ha":694,"x_min":0,"x_max":496,"o":"m 0 893 l 99 893 l 99 694 l 298 694 l 298 595 l 99 595 l 99 198 l 298 198 l 298 298 l 397 298 l 397 496 l 298 496 l 298 595 l 397 595 l 397 496 l 496 496 l 496 298 l 397 298 l 397 198 l 298 198 l 298 99 l 99 99 l 99 -99 l 0 -99 l 0 893 z "},"ß":{"ha":694,"x_min":99,"x_max":595,"o":"m 198 794 l 496 794 l 496 694 l 198 694 l 198 794 m 496 694 l 595 694 l 595 496 l 496 496 l 496 694 m 496 496 l 397 496 l 397 397 l 496 397 l 496 496 m 496 397 l 595 397 l 595 99 l 496 99 l 496 397 m 496 99 l 397 99 l 397 0 l 496 0 l 496 99 m 198 694 l 198 0 l 99 0 l 99 694 l 198 694 z "},"à":{"ha":694,"x_min":99,"x_max":595,"o":"m 496 694 l 496 794 l 397 794 l 397 893 l 298 893 l 298 992 l 198 992 l 198 893 l 298 893 l 298 794 l 397 794 l 397 694 l 496 694 m 298 496 l 198 496 l 198 397 l 99 397 l 99 496 l 198 496 l 198 595 l 496 595 l 496 496 l 595 496 l 595 99 l 496 99 l 496 298 l 198 298 l 198 99 l 496 99 l 496 0 l 198 0 l 198 99 l 99 99 l 99 298 l 198 298 l 198 397 l 496 397 l 496 496 l 298 496 z "},"á":{"ha":694,"x_min":99,"x_max":595,"o":"m 397 992 l 496 992 l 496 893 l 397 893 l 397 992 m 397 893 l 298 893 l 298 794 l 397 794 l 397 893 m 298 794 l 198 794 l 198 694 l 298 694 l 298 794 m 198 595 l 496 595 l 496 496 l 198 496 l 198 595 m 496 496 l 595 496 l 595 99 l 496 99 l 496 298 l 198 298 l 198 397 l 496 397 l 496 496 m 496 99 l 198 99 l 198 0 l 496 0 l 496 99 m 198 99 l 99 99 l 99 298 l 198 298 l 198 99 m 198 397 l 198 496 l 99 496 l 99 397 l 198 397 z "},"â":{"ha":694,"x_min":99,"x_max":595,"o":"m 99 694 l 198 694 l 198 794 l 298 794 l 298 893 l 397 893 l 397 794 l 496 794 l 496 694 l 595 694 l 595 794 l 496 794 l 496 893 l 397 893 l 397 992 l 298 992 l 298 893 l 198 893 l 198 794 l 99 794 l 99 694 m 198 0 l 198 99 l 99 99 l 99 298 l 198 298 l 198 99 l 496 99 l 496 298 l 198 298 l 198 397 l 496 397 l 496 496 l 198 496 l 198 397 l 99 397 l 99 496 l 198 496 l 198 595 l 496 595 l 496 496 l 595 496 l 595 99 l 496 99 l 496 0 l 198 0 z "},"ã":{"ha":694,"x_min":0,"x_max":694,"o":"m 694 794 l 595 794 l 595 694 l 397 694 l 397 794 l 298 794 l 298 992 l 99 992 l 99 893 l 0 893 l 0 992 l 99 992 l 99 1091 l 298 1091 l 298 992 l 397 992 l 397 794 l 595 794 l 595 893 l 694 893 l 694 794 m 298 496 l 198 496 l 198 397 l 99 397 l 99 496 l 198 496 l 198 595 l 496 595 l 496 496 l 595 496 l 595 99 l 496 99 l 496 298 l 198 298 l 198 99 l 496 99 l 496 0 l 198 0 l 198 99 l 99 99 l 99 298 l 198 298 l 198 397 l 496 397 l 496 496 l 298 496 z "},"ä":{"ha":694,"x_min":99,"x_max":595,"o":"m 198 694 l 99 694 l 99 893 l 198 893 l 198 694 m 496 694 l 496 893 l 595 893 l 595 694 l 496 694 m 198 0 l 198 99 l 496 99 l 496 298 l 198 298 l 198 99 l 99 99 l 99 298 l 198 298 l 198 397 l 496 397 l 496 496 l 198 496 l 198 397 l 99 397 l 99 496 l 198 496 l 198 595 l 496 595 l 496 496 l 595 496 l 595 99 l 496 99 l 496 0 l 198 0 z "},"å":{"ha":694,"x_min":99,"x_max":595,"o":"m 298 694 l 397 694 l 397 794 l 496 794 l 496 893 l 397 893 l 397 992 l 298 992 l 298 893 l 397 893 l 397 794 l 298 794 l 298 893 l 198 893 l 198 794 l 298 794 l 298 694 m 298 496 l 198 496 l 198 397 l 99 397 l 99 496 l 198 496 l 198 595 l 496 595 l 496 496 l 595 496 l 595 99 l 496 99 l 496 298 l 198 298 l 198 99 l 496 99 l 496 0 l 198 0 l 198 99 l 99 99 l 99 298 l 198 298 l 198 397 l 496 397 l 496 496 l 298 496 z "},"æ":{"ha":694,"x_min":0,"x_max":694,"o":"m 99 595 l 595 595 l 595 496 l 397 496 l 397 397 l 595 397 l 595 496 l 694 496 l 694 298 l 595 298 l 397 298 l 397 99 l 595 99 l 595 0 l 99 0 l 99 99 l 298 99 l 298 298 l 99 298 l 99 397 l 298 397 l 298 496 l 99 496 l 99 595 m 595 99 l 595 198 l 694 198 l 694 99 l 595 99 m 99 99 l 0 99 l 0 298 l 99 298 l 99 99 m 99 397 l 99 496 l 0 496 l 0 397 l 99 397 z "},"ç":{"ha":694,"x_min":99,"x_max":595,"o":"m 595 198 l 595 99 l 496 99 l 496 0 l 397 0 l 397 -99 l 496 -99 l 496 -198 l 397 -198 l 397 -298 l 298 -298 l 298 -198 l 397 -198 l 397 -99 l 298 -99 l 298 0 l 198 0 l 198 99 l 99 99 l 99 496 l 198 496 l 198 595 l 496 595 l 496 496 l 595 496 l 595 397 l 496 397 l 496 496 l 198 496 l 198 99 l 496 99 l 496 198 l 595 198 z "},"è":{"ha":694,"x_min":99,"x_max":595,"o":"m 397 694 l 496 694 l 496 794 l 397 794 l 397 893 l 298 893 l 298 992 l 198 992 l 198 893 l 298 893 l 298 794 l 397 794 l 397 694 m 99 99 l 99 496 l 198 496 l 198 595 l 496 595 l 496 496 l 198 496 l 198 397 l 496 397 l 496 496 l 595 496 l 595 298 l 198 298 l 198 99 l 496 99 l 496 198 l 595 198 l 595 99 l 496 99 l 496 0 l 198 0 l 198 99 l 99 99 z "},"é":{"ha":694,"x_min":99,"x_max":595,"o":"m 198 694 l 298 694 l 298 794 l 397 794 l 397 893 l 496 893 l 496 992 l 397 992 l 397 893 l 298 893 l 298 794 l 198 794 l 198 694 m 99 99 l 99 496 l 198 496 l 198 595 l 496 595 l 496 496 l 198 496 l 198 397 l 496 397 l 496 496 l 595 496 l 595 298 l 198 298 l 198 99 l 496 99 l 496 198 l 595 198 l 595 99 l 496 99 l 496 0 l 198 0 l 198 99 l 99 99 z "},"ê":{"ha":694,"x_min":99,"x_max":595,"o":"m 99 694 l 198 694 l 198 794 l 298 794 l 298 893 l 397 893 l 397 794 l 496 794 l 496 694 l 595 694 l 595 794 l 496 794 l 496 893 l 397 893 l 397 992 l 298 992 l 298 893 l 198 893 l 198 794 l 99 794 l 99 694 m 99 99 l 99 496 l 198 496 l 198 595 l 496 595 l 496 496 l 198 496 l 198 397 l 496 397 l 496 496 l 595 496 l 595 298 l 198 298 l 198 99 l 496 99 l 496 198 l 595 198 l 595 99 l 496 99 l 496 0 l 198 0 l 198 99 l 99 99 z "},"ë":{"ha":694,"x_min":99,"x_max":595,"o":"m 496 694 l 595 694 l 595 893 l 496 893 l 496 694 m 99 694 l 198 694 l 198 893 l 99 893 l 99 694 m 99 99 l 99 496 l 198 496 l 198 595 l 496 595 l 496 496 l 198 496 l 198 397 l 496 397 l 496 496 l 595 496 l 595 298 l 198 298 l 198 99 l 496 99 l 496 198 l 595 198 l 595 99 l 496 99 l 496 0 l 198 0 l 198 99 l 99 99 z "},"ì":{"ha":694,"x_min":198,"x_max":496,"o":"m 298 496 l 397 496 l 397 0 l 298 0 l 298 496 m 198 794 l 198 893 l 298 893 l 298 794 l 397 794 l 397 694 l 496 694 l 496 595 l 397 595 l 397 694 l 298 694 l 298 794 l 198 794 z "},"í":{"ha":694,"x_min":198,"x_max":496,"o":"m 397 992 l 496 992 l 496 893 l 397 893 l 397 992 m 397 893 l 298 893 l 298 794 l 397 794 l 397 893 m 298 794 l 198 794 l 198 694 l 298 694 l 298 794 m 298 496 l 397 496 l 397 0 l 298 0 l 298 496 z "},"î":{"ha":694,"x_min":99,"x_max":595,"o":"m 298 496 l 397 496 l 397 0 l 298 0 l 298 496 m 298 893 l 397 893 l 397 794 l 496 794 l 496 694 l 595 694 l 595 595 l 496 595 l 496 694 l 397 694 l 397 794 l 298 794 l 298 694 l 198 694 l 198 595 l 99 595 l 99 694 l 198 694 l 198 794 l 298 794 l 298 893 z "},"ï":{"ha":694,"x_min":198,"x_max":496,"o":"m 397 595 l 397 794 l 496 794 l 496 595 l 397 595 m 298 595 l 298 794 l 198 794 l 198 595 l 298 595 m 298 0 l 298 496 l 397 496 l 397 0 l 298 0 z "},"ð":{"ha":694,"x_min":0,"x_max":397,"o":"m 99 694 l 99 595 l 0 595 l 0 694 l 99 694 m 99 694 l 99 794 l 0 794 l 0 893 l 99 893 l 99 794 l 198 794 l 198 893 l 298 893 l 298 794 l 198 794 l 198 694 l 99 694 m 198 694 l 298 694 l 298 595 l 198 595 l 198 694 m 298 595 l 397 595 l 397 99 l 298 99 l 298 397 l 99 397 l 99 99 l 298 99 l 298 0 l 99 0 l 99 99 l 0 99 l 0 397 l 99 397 l 99 496 l 298 496 l 298 595 z "},"ñ":{"ha":694,"x_min":0,"x_max":694,"o":"m 99 1091 l 298 1091 l 298 992 l 99 992 l 99 1091 m 298 992 l 298 794 l 397 794 l 397 992 l 298 992 m 397 794 l 397 694 l 595 694 l 595 794 l 397 794 m 595 794 l 694 794 l 694 893 l 595 893 l 595 794 m 99 992 l 0 992 l 0 893 l 99 893 l 99 992 m 198 595 l 496 595 l 496 496 l 198 496 l 198 595 m 496 496 l 595 496 l 595 0 l 496 0 l 496 496 m 198 496 l 198 0 l 99 0 l 99 496 l 198 496 z "},"ò":{"ha":694,"x_min":99,"x_max":595,"o":"m 198 992 l 298 992 l 298 893 l 198 893 l 198 992 m 298 893 l 298 794 l 397 794 l 397 893 l 298 893 m 397 794 l 397 694 l 496 694 l 496 794 l 397 794 m 198 595 l 496 595 l 496 496 l 198 496 l 198 595 m 496 496 l 595 496 l 595 99 l 496 99 l 496 496 m 496 99 l 198 99 l 198 0 l 496 0 l 496 99 m 198 99 l 99 99 l 99 496 l 198 496 l 198 99 z "},"ó":{"ha":694,"x_min":99,"x_max":595,"o":"m 397 992 l 496 992 l 496 893 l 397 893 l 397 992 m 397 893 l 298 893 l 298 794 l 397 794 l 397 893 m 298 794 l 198 794 l 198 694 l 298 694 l 298 794 m 198 595 l 496 595 l 496 496 l 198 496 l 198 595 m 496 496 l 595 496 l 595 99 l 496 99 l 496 496 m 496 99 l 198 99 l 198 0 l 496 0 l 496 99 m 198 99 l 99 99 l 99 496 l 198 496 l 198 99 z "},"ô":{"ha":694,"x_min":99,"x_max":595,"o":"m 298 992 l 397 992 l 397 893 l 298 893 l 298 992 m 397 893 l 397 794 l 496 794 l 496 893 l 397 893 m 496 794 l 496 694 l 595 694 l 595 794 l 496 794 m 298 893 l 198 893 l 198 794 l 298 794 l 298 893 m 198 794 l 99 794 l 99 694 l 198 694 l 198 794 m 198 595 l 496 595 l 496 496 l 198 496 l 198 595 m 496 496 l 595 496 l 595 99 l 496 99 l 496 496 m 496 99 l 198 99 l 198 0 l 496 0 l 496 99 m 198 99 l 99 99 l 99 496 l 198 496 l 198 99 z "},"õ":{"ha":694,"x_min":0,"x_max":397,"o":"m 0 595 l 99 595 l 99 694 l 198 694 l 198 595 l 298 595 l 298 694 l 397 694 l 397 794 l 298 794 l 298 694 l 198 694 l 198 794 l 99 794 l 99 694 l 0 694 l 0 595 m 99 99 l 298 99 l 298 397 l 99 397 l 99 99 m 99 0 l 99 99 l 0 99 l 0 397 l 99 397 l 99 496 l 298 496 l 298 397 l 397 397 l 397 99 l 298 99 l 298 0 l 99 0 z "},"ö":{"ha":694,"x_min":99,"x_max":595,"o":"m 99 694 l 99 893 l 198 893 l 198 694 l 99 694 m 496 694 l 496 893 l 595 893 l 595 694 l 496 694 m 198 496 l 198 595 l 496 595 l 496 496 l 198 496 m 99 99 l 99 496 l 198 496 l 198 99 l 99 99 m 198 0 l 198 99 l 496 99 l 496 0 l 198 0 m 496 99 l 496 496 l 595 496 l 595 99 l 496 99 z "},"÷":{"ha":694,"x_min":0,"x_max":694,"o":"m 298 794 l 397 794 l 397 595 l 298 595 l 298 794 m 0 397 l 694 397 l 694 298 l 0 298 l 0 397 m 298 99 l 397 99 l 397 -99 l 298 -99 l 298 99 z "},"ø":{"ha":694,"x_min":0,"x_max":546,"o":"m 0 0 l 0 99 l 99 99 l 99 198 l 198 198 l 198 298 l 298 298 l 298 397 l 99 397 l 99 198 l 0 198 l 0 397 l 99 397 l 99 496 l 298 496 l 298 397 l 397 397 l 397 496 l 496 496 l 496 397 l 397 397 l 397 298 l 298 298 l 298 198 l 198 198 l 198 99 l 397 99 l 397 298 l 496 298 l 496 99 l 397 99 l 397 0 l 198 0 l 198 99 l 99 99 l 99 0 l 0 0 z "},"ù":{"ha":694,"x_min":99,"x_max":595,"o":"m 198 992 l 298 992 l 298 893 l 198 893 l 198 992 m 298 893 l 298 794 l 397 794 l 397 893 l 298 893 m 397 794 l 397 694 l 496 694 l 496 794 l 397 794 m 99 595 l 198 595 l 198 99 l 99 99 l 99 595 m 198 99 l 198 0 l 496 0 l 496 99 l 198 99 m 496 99 l 496 595 l 595 595 l 595 99 l 496 99 z "},"ú":{"ha":694,"x_min":99,"x_max":595,"o":"m 397 992 l 496 992 l 496 893 l 397 893 l 397 992 m 397 893 l 298 893 l 298 794 l 397 794 l 397 893 m 298 794 l 198 794 l 198 694 l 298 694 l 298 794 m 99 595 l 198 595 l 198 99 l 99 99 l 99 595 m 198 99 l 198 0 l 496 0 l 496 99 l 198 99 m 496 99 l 496 595 l 595 595 l 595 99 l 496 99 z "},"û":{"ha":694,"x_min":99,"x_max":595,"o":"m 298 992 l 397 992 l 397 893 l 298 893 l 298 992 m 397 893 l 397 794 l 496 794 l 496 893 l 397 893 m 496 794 l 496 694 l 595 694 l 595 794 l 496 794 m 298 893 l 198 893 l 198 794 l 298 794 l 298 893 m 198 794 l 99 794 l 99 694 l 198 694 l 198 794 m 99 595 l 198 595 l 198 99 l 99 99 l 99 595 m 198 99 l 198 0 l 496 0 l 496 99 l 198 99 m 496 99 l 496 595 l 595 595 l 595 99 l 496 99 z "},"ü":{"ha":694,"x_min":99,"x_max":595,"o":"m 496 694 l 496 893 l 595 893 l 595 694 l 496 694 m 99 694 l 99 893 l 198 893 l 198 694 l 99 694 m 99 496 l 198 496 l 198 99 l 496 99 l 496 496 l 595 496 l 595 99 l 496 99 l 496 0 l 198 0 l 198 99 l 99 99 l 99 496 z "},"ý":{"ha":694,"x_min":0,"x_max":397,"o":"m 99 595 l 99 694 l 198 694 l 198 794 l 298 794 l 298 694 l 198 694 l 198 595 l 99 595 m 0 496 l 99 496 l 99 298 l 298 298 l 298 496 l 397 496 l 397 0 l 298 0 l 298 -99 l 99 -99 l 99 0 l 0 0 l 0 99 l 99 99 l 99 0 l 298 0 l 298 198 l 99 198 l 99 298 l 0 298 l 0 496 z "},"þ":{"ha":694,"x_min":0,"x_max":546,"o":"m 198 595 l 198 496 l 99 496 l 99 298 l 198 298 l 198 198 l 397 198 l 397 595 l 198 595 m 0 893 l 99 893 l 99 595 l 198 595 l 198 694 l 397 694 l 397 595 l 496 595 l 496 198 l 397 198 l 397 99 l 198 99 l 198 198 l 99 198 l 99 -99 l 0 -99 l 0 893 z "},"ÿ":{"ha":694,"x_min":99,"x_max":595,"o":"m 99 893 l 198 893 l 198 694 l 99 694 l 99 893 m 496 893 l 595 893 l 595 694 l 496 694 l 496 893 m 99 496 l 198 496 l 198 198 l 99 198 l 99 496 m 198 198 l 496 198 l 496 496 l 595 496 l 595 -99 l 496 -99 l 496 99 l 198 99 l 198 198 m 496 -99 l 198 -99 l 198 -198 l 496 -198 l 496 -99 m 198 -99 l 99 -99 l 99 0 l 198 0 l 198 -99 z "},"ƒ":{"ha":694,"x_min":0,"x_max":694,"o":"m 397 992 l 595 992 l 595 893 l 397 893 l 397 992 m 595 893 l 595 794 l 694 794 l 694 893 l 595 893 m 397 893 l 397 694 l 496 694 l 496 595 l 397 595 l 397 99 l 298 99 l 298 595 l 198 595 l 198 694 l 298 694 l 298 893 l 397 893 m 298 99 l 99 99 l 99 0 l 298 0 l 298 99 m 99 99 l 0 99 l 0 198 l 99 198 l 99 99 z "},"Γ":{"ha":694,"x_min":99,"x_max":595,"o":"m 99 794 l 99 694 l 99 0 l 198 0 l 198 694 l 595 694 l 595 794 l 198 794 l 99 794 z "},"Θ":{"ha":694,"x_min":0,"x_max":496,"o":"m 99 694 l 397 694 l 397 595 l 99 595 l 99 694 m 397 595 l 496 595 l 496 99 l 397 99 l 397 298 l 99 298 l 99 99 l 0 99 l 0 595 l 99 595 l 99 397 l 397 397 l 397 595 m 397 99 l 99 99 l 99 0 l 397 0 l 397 99 z "},"Σ":{"ha":694,"x_min":99,"x_max":595,"o":"m 99 794 l 595 794 l 595 694 l 198 694 l 198 595 l 99 595 l 99 694 l 99 794 m 198 595 l 198 496 l 298 496 l 298 595 l 198 595 m 298 496 l 298 397 l 298 298 l 397 298 l 397 397 l 397 496 l 298 496 m 298 298 l 198 298 l 198 198 l 298 198 l 298 298 m 198 198 l 99 198 l 99 99 l 99 0 l 595 0 l 595 99 l 198 99 l 198 198 z "},"Φ":{"ha":694,"x_min":0,"x_max":694,"o":"m 298 1091 l 397 1091 l 397 794 l 595 794 l 595 694 l 397 694 l 397 99 l 595 99 l 595 0 l 397 0 l 397 -298 l 298 -298 l 298 0 l 99 0 l 99 99 l 298 99 l 298 694 l 99 694 l 99 794 l 298 794 l 298 1091 m 595 694 l 694 694 l 694 99 l 595 99 l 595 694 m 99 99 l 0 99 l 0 694 l 99 694 l 99 99 z "},"Ω":{"ha":694,"x_min":99,"x_max":595,"o":"m 198 794 l 496 794 l 496 694 l 198 694 l 198 794 m 496 694 l 595 694 l 595 198 l 496 198 l 496 694 m 496 198 l 397 198 l 397 99 l 397 0 l 595 0 l 595 99 l 496 99 l 496 198 m 198 694 l 198 198 l 99 198 l 99 694 l 198 694 m 198 198 l 198 99 l 99 99 l 99 0 l 298 0 l 298 99 l 298 198 l 198 198 z "},"α":{"ha":694,"x_min":99,"x_max":694,"o":"m 198 595 l 496 595 l 496 496 l 198 496 l 198 595 m 496 496 l 595 496 l 595 99 l 496 99 l 496 496 m 595 496 l 595 595 l 694 595 l 694 496 l 595 496 m 595 99 l 595 0 l 694 0 l 694 99 l 595 99 m 496 99 l 198 99 l 198 0 l 496 0 l 496 99 m 198 99 l 99 99 l 99 496 l 198 496 l 198 99 z "},"δ":{"ha":694,"x_min":99,"x_max":595,"o":"m 298 893 l 595 893 l 595 794 l 298 794 l 298 893 m 298 794 l 298 595 l 496 595 l 496 496 l 298 496 l 198 496 l 198 794 l 298 794 m 496 496 l 595 496 l 595 99 l 496 99 l 496 496 m 496 99 l 198 99 l 198 0 l 496 0 l 496 99 m 198 99 l 99 99 l 99 496 l 198 496 l 198 99 z "},"ε":{"ha":694,"x_min":99,"x_max":595,"o":"m 198 694 l 496 694 l 496 595 l 198 595 l 198 694 m 496 595 l 496 496 l 595 496 l 595 595 l 496 595 m 198 595 l 99 595 l 99 397 l 198 397 l 198 595 m 198 397 l 198 298 l 496 298 l 496 397 l 198 397 m 198 298 l 198 99 l 99 99 l 99 298 l 198 298 m 198 99 l 198 0 l 496 0 l 496 99 l 198 99 m 496 99 l 496 198 l 595 198 l 595 99 l 496 99 z "},"π":{"ha":694,"x_min":99,"x_max":595,"o":"m 99 794 l 99 694 l 99 0 l 198 0 l 198 694 l 496 694 l 496 0 l 595 0 l 595 694 l 595 794 l 496 794 l 198 794 l 99 794 z "},"σ":{"ha":694,"x_min":99,"x_max":694,"o":"m 198 595 l 694 595 l 694 496 l 595 496 l 595 99 l 496 99 l 496 496 l 198 496 l 198 595 m 496 99 l 198 99 l 198 0 l 496 0 l 496 99 m 198 99 l 99 99 l 99 496 l 198 496 l 198 99 z "},"τ":{"ha":694,"x_min":99,"x_max":595,"o":"m 99 595 l 298 595 l 298 496 l 99 496 l 99 595 m 298 496 l 397 496 l 397 0 l 298 0 l 298 496 m 397 496 l 397 595 l 595 595 l 595 496 l 397 496 z "},"φ":{"ha":694,"x_min":0,"x_max":694,"o":"m 99 694 l 198 694 l 198 595 l 99 595 l 99 694 m 99 595 l 99 397 l 0 397 l 0 595 l 99 595 m 99 397 l 298 397 l 298 595 l 397 595 l 397 397 l 595 397 l 595 298 l 397 298 l 397 0 l 298 0 l 298 298 l 99 298 l 99 397 m 397 595 l 397 694 l 595 694 l 595 595 l 397 595 m 595 595 l 694 595 l 694 397 l 595 397 l 595 595 z "},"‖":{"ha":694,"x_min":99,"x_max":397,"o":"m 298 -99 l 298 893 l 397 893 l 397 -99 l 298 -99 m 99 -99 l 99 893 l 198 893 l 198 -99 l 99 -99 z "},"•":{"ha":694,"x_min":99,"x_max":397,"o":"m 99 298 l 99 397 l 198 397 l 198 496 l 298 496 l 298 397 l 397 397 l 397 298 l 298 298 l 298 198 l 198 198 l 198 298 l 99 298 z "},"…":{"ha":694,"x_min":0,"x_max":496,"o":"m 397 -99 l 397 99 l 496 99 l 496 -99 l 397 -99 m 198 -99 l 198 99 l 298 99 l 298 -99 l 198 -99 m 0 -99 l 0 99 l 99 99 l 99 -99 l 0 -99 z "},"‼":{"ha":694,"x_min":99,"x_max":397,"o":"m 298 298 l 298 893 l 397 893 l 397 298 l 298 298 m 99 298 l 99 893 l 198 893 l 198 298 l 99 298 m 298 -99 l 298 99 l 397 99 l 397 -99 l 298 -99 m 99 -99 l 99 99 l 198 99 l 198 -99 l 99 -99 z "},"ⁿ":{"ha":694,"x_min":99,"x_max":595,"o":"m 198 992 l 496 992 l 496 893 l 198 893 l 198 992 m 496 893 l 595 893 l 595 496 l 496 496 l 496 893 m 198 893 l 198 496 l 99 496 l 99 893 l 198 893 z "},"₧":{"ha":694,"x_min":99,"x_max":595,"o":"m 99 893 l 198 893 l 496 893 l 496 794 l 198 794 l 198 694 l 496 694 l 496 595 l 198 595 l 198 0 l 99 0 l 99 893 m 496 794 l 496 694 l 595 694 l 595 794 l 496 794 m 298 496 l 397 496 l 397 397 l 595 397 l 595 298 l 397 298 l 397 99 l 298 99 l 298 496 m 397 99 l 397 0 l 595 0 l 595 99 l 397 99 z "},"←":{"ha":694,"x_min":0,"x_max":496,"o":"m 0 397 l 99 397 l 99 496 l 198 496 l 198 397 l 496 397 l 496 298 l 198 298 l 198 198 l 99 198 l 99 298 l 0 298 l 0 397 z "},"↑":{"ha":694,"x_min":99,"x_max":397,"o":"m 198 -99 l 198 694 l 99 694 l 99 794 l 198 794 l 198 893 l 298 893 l 298 794 l 397 794 l 397 694 l 298 694 l 298 -99 l 198 -99 z "},"→":{"ha":694,"x_min":0,"x_max":496,"o":"m 0 397 l 298 397 l 298 496 l 397 496 l 397 397 l 496 397 l 496 298 l 397 298 l 397 198 l 298 198 l 298 298 l 0 298 l 0 397 z "},"↓":{"ha":694,"x_min":99,"x_max":397,"o":"m 198 893 l 198 99 l 99 99 l 99 0 l 198 0 l 198 -99 l 298 -99 l 298 0 l 397 0 l 397 99 l 298 99 l 298 893 l 198 893 z "},"↔":{"ha":694,"x_min":0,"x_max":496,"o":"m 0 397 l 99 397 l 99 496 l 198 496 l 198 397 l 298 397 l 298 496 l 397 496 l 397 397 l 496 397 l 496 298 l 397 298 l 397 198 l 298 198 l 298 298 l 198 298 l 198 198 l 99 198 l 99 298 l 0 298 l 0 397 z "},"↕":{"ha":694,"x_min":99,"x_max":397,"o":"m 198 893 l 198 794 l 99 794 l 99 694 l 198 694 l 198 99 l 99 99 l 99 0 l 198 0 l 198 -99 l 298 -99 l 298 0 l 397 0 l 397 99 l 298 99 l 298 694 l 397 694 l 397 794 l 298 794 l 298 893 l 198 893 z "},"↨":{"ha":694,"x_min":0,"x_max":496,"o":"m 0 -99 l 0 0 l 198 0 l 198 99 l 99 99 l 99 198 l 198 198 l 198 893 l 298 893 l 298 198 l 397 198 l 397 99 l 298 99 l 298 0 l 496 0 l 496 -99 l 0 -99 z "},"∙":{"ha":694,"x_min":198,"x_max":496,"o":"m 298 595 l 397 595 l 397 496 l 496 496 l 496 397 l 397 397 l 397 298 l 298 298 l 298 397 l 198 397 l 198 496 l 298 496 l 298 595 z "},"√":{"ha":694,"x_min":0,"x_max":694,"o":"m 496 794 l 694 794 l 694 694 l 496 694 l 496 794 m 496 694 l 496 397 l 397 397 l 397 694 l 496 694 m 397 397 l 397 99 l 298 99 l 298 397 l 397 397 m 298 99 l 198 99 l 198 0 l 298 0 l 298 99 m 198 99 l 99 99 l 99 298 l 198 298 l 198 99 m 99 298 l 0 298 l 0 496 l 99 496 l 99 298 z "},"∞":{"ha":694,"x_min":0,"x_max":694,"o":"m 99 694 l 298 694 l 298 595 l 99 595 l 99 694 m 298 595 l 397 595 l 397 397 l 298 397 l 298 595 m 397 595 l 397 694 l 595 694 l 595 595 l 397 595 m 595 595 l 694 595 l 694 397 l 595 397 l 595 595 m 595 397 l 397 397 l 397 298 l 595 298 l 595 397 m 298 397 l 99 397 l 99 298 l 298 298 l 298 397 m 99 397 l 0 397 l 0 595 l 99 595 l 99 397 z "},"∟":{"ha":694,"x_min":0,"x_max":496,"o":"m 0 397 l 99 397 l 99 0 l 496 0 l 496 -99 l 0 -99 l 0 397 z "},"∩":{"ha":694,"x_min":99,"x_max":595,"o":"m 198 794 l 496 794 l 496 694 l 198 694 l 198 794 m 496 694 l 595 694 l 595 0 l 496 0 l 496 694 m 198 694 l 198 0 l 99 0 l 99 694 l 198 694 z "},"≈":{"ha":694,"x_min":0,"x_max":694,"o":"m 99 1091 l 298 1091 l 298 992 l 99 992 l 99 1091 m 298 992 l 298 794 l 397 794 l 397 992 l 298 992 m 397 794 l 397 694 l 595 694 l 595 794 l 397 794 m 595 794 l 694 794 l 694 893 l 595 893 l 595 794 m 99 992 l 0 992 l 0 893 l 99 893 l 99 992 m 99 397 l 298 397 l 298 298 l 99 298 l 99 397 m 298 298 l 298 99 l 397 99 l 397 298 l 298 298 m 397 99 l 397 0 l 595 0 l 595 99 l 397 99 m 595 99 l 694 99 l 694 198 l 595 198 l 595 99 m 99 298 l 0 298 l 0 198 l 99 198 l 99 298 z "},"≡":{"ha":694,"x_min":0,"x_max":694,"o":"m 0 794 l 694 794 l 694 694 l 0 694 l 0 794 m 0 496 l 694 496 l 694 397 l 0 397 l 0 496 m 0 99 l 694 99 l 694 0 l 0 0 l 0 99 z "},"≣":{"ha":694,"x_min":0,"x_max":496,"o":"m 0 893 l 496 893 l 496 794 l 0 794 l 0 893 m 0 99 l 496 99 l 496 0 l 0 0 l 0 99 m 0 397 l 496 397 l 496 298 l 0 298 l 0 397 m 0 694 l 496 694 l 496 595 l 0 595 l 0 694 z "},"≤":{"ha":694,"x_min":0,"x_max":694,"o":"m 694 794 l 694 694 l 496 694 l 496 794 l 694 794 m 496 694 l 496 595 l 298 595 l 298 694 l 496 694 m 298 595 l 298 496 l 99 496 l 99 595 l 298 595 m 99 496 l 99 397 l 0 397 l 0 496 l 99 496 m 99 397 l 298 397 l 298 298 l 99 298 l 99 397 m 298 298 l 496 298 l 496 198 l 298 198 l 298 298 m 496 198 l 694 198 l 694 99 l 694 0 l 0 0 l 0 99 l 496 99 l 496 198 z "},"≥":{"ha":694,"x_min":0,"x_max":694,"o":"m 0 794 l 198 794 l 198 694 l 0 694 l 0 794 m 198 694 l 198 595 l 397 595 l 397 694 l 198 694 m 397 595 l 397 496 l 595 496 l 595 595 l 397 595 m 595 496 l 595 397 l 694 397 l 694 496 l 595 496 m 595 397 l 397 397 l 397 298 l 595 298 l 595 397 m 397 298 l 198 298 l 198 198 l 397 198 l 397 298 m 198 198 l 0 198 l 0 99 l 0 0 l 694 0 l 694 99 l 198 99 l 198 198 z "},"⌂":{"ha":694,"x_min":0,"x_max":694,"o":"m 0 0 l 0 496 l 99 496 l 99 595 l 198 595 l 198 694 l 298 694 l 298 794 l 397 794 l 397 694 l 496 694 l 496 595 l 595 595 l 595 496 l 496 496 l 496 595 l 397 595 l 397 694 l 298 694 l 298 595 l 198 595 l 198 496 l 99 496 l 99 99 l 595 99 l 595 496 l 694 496 l 694 0 l 0 0 z "},"⌐":{"ha":694,"x_min":0,"x_max":496,"o":"m 0 -99 l 0 397 l 496 397 l 496 298 l 99 298 l 99 -99 l 0 -99 z "},"⌠":{"ha":694,"x_min":298,"x_max":694,"o":"m 397 992 l 595 992 l 595 893 l 397 893 l 397 992 m 595 893 l 595 794 l 694 794 l 694 893 l 595 893 m 397 893 l 397 -298 l 298 -298 l 298 893 l 397 893 z "},"⌡":{"ha":694,"x_min":0,"x_max":397,"o":"m 298 -198 l 298 -99 l 99 -99 l 99 -198 l 298 -198 m 99 -99 l 0 -99 l 0 0 l 99 0 l 99 -99 m 298 -99 l 298 1091 l 397 1091 l 397 -99 l 298 -99 z "},"─":{"ha":694,"x_min":0,"x_max":694,"o":"m 0 298 l 0 397 l 694 397 l 694 298 l 0 298 z "},"│":{"ha":694,"x_min":298,"x_max":397,"o":"m 298 -298 l 298 1091 l 397 1091 l 397 -298 l 298 -298 z "},"┌":{"ha":694,"x_min":298,"x_max":694,"o":"m 298 496 l 397 496 l 694 496 l 694 397 l 397 397 l 397 -298 l 298 -298 l 298 397 l 298 496 z "},"┐":{"ha":694,"x_min":0,"x_max":397,"o":"m 0 496 l 397 496 l 397 397 l 397 -298 l 298 -298 l 298 397 l 0 397 l 0 496 z "},"└":{"ha":694,"x_min":298,"x_max":694,"o":"m 298 1091 l 397 1091 l 397 496 l 694 496 l 694 397 l 397 397 l 298 397 l 298 496 l 298 1091 z "},"┘":{"ha":694,"x_min":0,"x_max":397,"o":"m 298 1091 l 397 1091 l 397 496 l 397 397 l 298 397 l 0 397 l 0 496 l 298 496 l 298 1091 z "},"├":{"ha":694,"x_min":298,"x_max":694,"o":"m 298 1091 l 397 1091 l 397 496 l 694 496 l 694 397 l 397 397 l 397 -298 l 298 -298 l 298 397 l 298 496 l 298 1091 z "},"┤":{"ha":694,"x_min":0,"x_max":397,"o":"m 298 1091 l 397 1091 l 397 496 l 397 397 l 397 -298 l 298 -298 l 298 397 l 0 397 l 0 496 l 298 496 l 298 1091 z "},"┬":{"ha":694,"x_min":0,"x_max":694,"o":"m 0 496 l 694 496 l 694 397 l 397 397 l 397 -298 l 298 -298 l 298 397 l 0 397 l 0 496 z "},"┴":{"ha":694,"x_min":0,"x_max":694,"o":"m 298 1091 l 397 1091 l 397 496 l 694 496 l 694 397 l 397 397 l 298 397 l 0 397 l 0 496 l 298 496 l 298 1091 z "},"┼":{"ha":694,"x_min":0,"x_max":694,"o":"m 298 1091 l 397 1091 l 397 496 l 694 496 l 694 397 l 397 397 l 397 -298 l 298 -298 l 298 397 l 0 397 l 0 496 l 298 496 l 298 1091 z "},"═":{"ha":694,"x_min":0,"x_max":694,"o":"m 0 496 l 694 496 l 694 397 l 0 397 l 0 496 m 0 298 l 694 298 l 694 198 l 0 198 l 0 298 z "},"║":{"ha":694,"x_min":198,"x_max":496,"o":"m 198 1091 l 298 1091 l 298 -298 l 198 -298 l 198 1091 m 397 1091 l 496 1091 l 496 -298 l 397 -298 l 397 1091 z "},"╒":{"ha":694,"x_min":298,"x_max":694,"o":"m 298 496 l 397 496 l 694 496 l 694 397 l 397 397 l 397 298 l 694 298 l 694 198 l 397 198 l 397 -298 l 298 -298 l 298 198 l 298 298 l 298 397 l 298 496 z "},"╓":{"ha":694,"x_min":198,"x_max":744,"o":"m 198 496 l 694 496 l 694 397 l 496 397 l 496 -298 l 397 -298 l 397 397 l 298 397 l 298 -298 l 198 -298 l 198 397 l 198 496 z "},"╔":{"ha":694,"x_min":198,"x_max":694,"o":"m 198 496 l 298 496 l 694 496 l 694 397 l 298 397 l 298 -298 l 198 -298 l 198 496 m 397 298 l 694 298 l 694 198 l 496 198 l 496 -298 l 397 -298 l 397 198 l 397 298 z "},"╕":{"ha":694,"x_min":0,"x_max":397,"o":"m 0 496 l 397 496 l 397 298 l 397 198 l 397 -298 l 298 -298 l 298 198 l 0 198 l 0 298 l 298 298 l 298 397 l 0 397 l 0 496 z "},"╖":{"ha":694,"x_min":0,"x_max":546,"o":"m 0 496 l 496 496 l 496 397 l 496 -298 l 397 -298 l 397 397 l 298 397 l 298 -298 l 198 -298 l 198 397 l 0 397 l 0 496 z "},"╗":{"ha":694,"x_min":0,"x_max":496,"o":"m 0 496 l 397 496 l 496 496 l 496 -298 l 397 -298 l 397 397 l 0 397 l 0 496 m 0 298 l 298 298 l 298 -298 l 198 -298 l 198 198 l 0 198 l 0 298 z "},"╘":{"ha":694,"x_min":298,"x_max":694,"o":"m 298 1091 l 397 1091 l 397 496 l 694 496 l 694 397 l 397 397 l 397 298 l 694 298 l 694 198 l 298 198 l 298 298 l 298 397 l 298 496 l 298 1091 z "},"╙":{"ha":694,"x_min":198,"x_max":694,"o":"m 198 1091 l 298 1091 l 298 496 l 397 496 l 397 1091 l 496 1091 l 496 496 l 694 496 l 694 397 l 496 397 l 397 397 l 198 397 l 198 496 l 198 1091 z "},"╚":{"ha":694,"x_min":198,"x_max":694,"o":"m 198 1091 l 298 1091 l 298 298 l 694 298 l 694 198 l 298 198 l 198 198 l 198 1091 m 397 1091 l 496 1091 l 496 496 l 694 496 l 694 397 l 397 397 l 397 496 l 397 1091 z "},"╛":{"ha":694,"x_min":0,"x_max":397,"o":"m 298 1091 l 397 1091 l 397 496 l 397 397 l 397 298 l 397 198 l 0 198 l 0 298 l 298 298 l 298 397 l 0 397 l 0 496 l 298 496 l 298 1091 z "},"╜":{"ha":694,"x_min":0,"x_max":546,"o":"m 198 1091 l 298 1091 l 298 496 l 397 496 l 397 1091 l 496 1091 l 496 397 l 397 397 l 0 397 l 0 496 l 198 496 l 198 1091 z "},"╝":{"ha":694,"x_min":0,"x_max":496,"o":"m 198 1091 l 298 1091 l 298 496 l 298 397 l 0 397 l 0 496 l 198 496 l 198 1091 m 397 1091 l 496 1091 l 496 198 l 397 198 l 0 198 l 0 298 l 397 298 l 397 1091 z "},"╞":{"ha":694,"x_min":298,"x_max":694,"o":"m 298 1091 l 397 1091 l 397 496 l 694 496 l 694 397 l 397 397 l 397 298 l 694 298 l 694 198 l 397 198 l 397 -298 l 298 -298 l 298 198 l 298 298 l 298 397 l 298 496 l 298 1091 z "},"╟":{"ha":694,"x_min":198,"x_max":694,"o":"m 198 1091 l 298 1091 l 298 -298 l 198 -298 l 198 1091 m 397 1091 l 496 1091 l 496 496 l 694 496 l 694 397 l 496 397 l 496 -298 l 397 -298 l 397 397 l 397 496 l 397 1091 z "},"╠":{"ha":694,"x_min":198,"x_max":694,"o":"m 198 1091 l 298 1091 l 298 -298 l 198 -298 l 198 1091 m 397 1091 l 496 1091 l 496 496 l 694 496 l 694 397 l 496 397 l 397 397 l 397 1091 m 397 298 l 496 298 l 694 298 l 694 198 l 496 198 l 496 -298 l 397 -298 l 397 198 l 397 298 z "},"╡":{"ha":694,"x_min":0,"x_max":397,"o":"m 298 1091 l 397 1091 l 397 298 l 397 198 l 397 -298 l 298 -298 l 298 198 l 0 198 l 0 298 l 298 298 l 298 397 l 0 397 l 0 496 l 298 496 l 298 1091 z "},"╢":{"ha":694,"x_min":0,"x_max":496,"o":"m 198 1091 l 298 1091 l 298 496 l 298 397 l 298 -298 l 198 -298 l 198 397 l 0 397 l 0 496 l 198 496 l 198 1091 m 397 1091 l 496 1091 l 496 -298 l 397 -298 l 397 1091 z "},"╣":{"ha":694,"x_min":0,"x_max":496,"o":"m 198 1091 l 298 1091 l 298 496 l 298 397 l 0 397 l 0 496 l 198 496 l 198 1091 m 397 1091 l 496 1091 l 496 -298 l 397 -298 l 397 1091 m 0 298 l 298 298 l 298 -298 l 198 -298 l 198 198 l 0 198 l 0 298 z "},"╤":{"ha":694,"x_min":0,"x_max":694,"o":"m 0 496 l 694 496 l 694 397 l 0 397 l 0 496 m 0 298 l 694 298 l 694 198 l 397 198 l 397 -298 l 298 -298 l 298 198 l 0 198 l 0 298 z "},"╥":{"ha":694,"x_min":0,"x_max":694,"o":"m 0 496 l 694 496 l 694 397 l 496 397 l 496 -298 l 397 -298 l 397 397 l 298 397 l 298 -298 l 198 -298 l 198 397 l 0 397 l 0 496 z "},"╦":{"ha":694,"x_min":0,"x_max":694,"o":"m 0 496 l 694 496 l 694 397 l 0 397 l 0 496 m 0 298 l 198 298 l 298 298 l 298 198 l 298 -298 l 198 -298 l 198 198 l 0 198 l 0 298 m 397 298 l 694 298 l 694 198 l 496 198 l 496 -298 l 397 -298 l 397 198 l 397 298 z "},"╧":{"ha":694,"x_min":0,"x_max":694,"o":"m 298 1091 l 397 1091 l 397 496 l 694 496 l 694 397 l 0 397 l 0 496 l 298 496 l 298 1091 m 0 298 l 694 298 l 694 198 l 0 198 l 0 298 z "},"╨":{"ha":694,"x_min":0,"x_max":694,"o":"m 198 1091 l 298 1091 l 298 496 l 397 496 l 397 1091 l 496 1091 l 496 496 l 694 496 l 694 397 l 496 397 l 397 397 l 298 397 l 198 397 l 0 397 l 0 496 l 198 496 l 198 1091 z "},"╩":{"ha":694,"x_min":0,"x_max":694,"o":"m 198 1091 l 298 1091 l 298 397 l 198 397 l 0 397 l 0 496 l 198 496 l 198 1091 m 397 1091 l 496 1091 l 496 496 l 694 496 l 694 397 l 397 397 l 397 1091 m 0 298 l 694 298 l 694 198 l 0 198 l 0 298 z "},"╪":{"ha":694,"x_min":0,"x_max":694,"o":"m 298 1091 l 397 1091 l 397 496 l 694 496 l 694 397 l 397 397 l 397 298 l 694 298 l 694 198 l 397 198 l 397 -298 l 298 -298 l 298 198 l 0 198 l 0 298 l 298 298 l 298 397 l 0 397 l 0 496 l 298 496 l 298 1091 z "},"╫":{"ha":694,"x_min":0,"x_max":694,"o":"m 198 1091 l 298 1091 l 298 496 l 397 496 l 397 1091 l 496 1091 l 496 496 l 694 496 l 694 397 l 496 397 l 496 -298 l 397 -298 l 397 397 l 298 397 l 298 -298 l 198 -298 l 198 397 l 0 397 l 0 496 l 198 496 l 198 1091 z "},"╬":{"ha":694,"x_min":0,"x_max":694,"o":"m 198 1091 l 298 1091 l 298 496 l 298 397 l 0 397 l 0 496 l 198 496 l 198 1091 m 397 1091 l 496 1091 l 496 496 l 694 496 l 694 397 l 496 397 l 397 397 l 397 1091 m 0 298 l 198 298 l 298 298 l 298 198 l 298 -298 l 198 -298 l 198 198 l 0 198 l 0 298 m 397 298 l 496 298 l 694 298 l 694 198 l 496 198 l 496 -298 l 397 -298 l 397 198 l 397 298 z "},"╭":{"ha":694,"x_min":99,"x_max":496,"o":"m 496 496 l 298 496 l 298 397 l 198 397 l 198 198 l 99 198 l 99 -99 l 298 -99 l 298 99 l 397 99 l 397 298 l 496 298 l 496 496 z "},"╮":{"ha":694,"x_min":0,"x_max":298,"o":"m 0 496 l 99 496 l 99 397 l 198 397 l 198 198 l 298 198 l 298 -99 l 99 -99 l 99 99 l 0 99 l 0 298 l 0 496 z "},"╯":{"ha":694,"x_min":0,"x_max":298,"o":"m 0 298 l 99 298 l 99 397 l 198 397 l 198 595 l 298 595 l 298 893 l 99 893 l 99 694 l 0 694 l 0 496 l 0 298 z "},"╰":{"ha":694,"x_min":99,"x_max":496,"o":"m 496 298 l 298 298 l 298 397 l 198 397 l 198 595 l 99 595 l 99 893 l 298 893 l 298 694 l 397 694 l 397 496 l 496 496 l 496 298 z "},"▀":{"ha":694,"x_min":0,"x_max":694,"o":"m 0 397 l 0 1091 l 694 1091 l 694 397 l 0 397 z "},"▁":{"ha":694,"x_min":0,"x_max":496,"o":"m 0 -99 l 0 0 l 496 0 l 496 -99 l 0 -99 z "},"▂":{"ha":694,"x_min":0,"x_max":496,"o":"m 0 -99 l 0 99 l 496 99 l 496 -99 l 0 -99 z "},"▃":{"ha":694,"x_min":0,"x_max":496,"o":"m 0 -99 l 0 198 l 496 198 l 496 -99 l 0 -99 z "},"▄":{"ha":694,"x_min":0,"x_max":694,"o":"m 0 -298 l 0 397 l 694 397 l 694 -298 l 0 -298 z "},"▅":{"ha":694,"x_min":0,"x_max":496,"o":"m 0 -99 l 0 496 l 496 496 l 496 -99 l 0 -99 z "},"▆":{"ha":694,"x_min":0,"x_max":496,"o":"m 0 -99 l 0 595 l 496 595 l 496 -99 l 0 -99 z "},"▇":{"ha":694,"x_min":0,"x_max":496,"o":"m 0 -99 l 0 694 l 496 694 l 496 -99 l 0 -99 z "},"█":{"ha":694,"x_min":0,"x_max":694,"o":"m 0 -298 l 0 1091 l 694 1091 l 694 -298 l 0 -298 z "},"▌":{"ha":694,"x_min":0,"x_max":397,"o":"m 0 -298 l 0 1091 l 397 1091 l 397 -298 l 0 -298 z "},"▏":{"ha":694,"x_min":0,"x_max":99,"o":"m 0 1091 l 99 1091 l 99 -298 l 0 -298 l 0 1091 z "},"▐":{"ha":694,"x_min":397,"x_max":694,"o":"m 397 -298 l 397 1091 l 694 1091 l 694 -298 l 397 -298 z "},"░":{"ha":694,"x_min":0,"x_max":694,"o":"m 0 992 l 0 1091 l 99 1091 l 99 992 l 0 992 m 298 992 l 298 1091 l 397 1091 l 397 992 l 298 992 m 198 794 l 198 893 l 298 893 l 298 794 l 198 794 m 496 794 l 496 893 l 595 893 l 595 794 l 496 794 m 397 595 l 397 694 l 496 694 l 496 595 l 397 595 m 595 397 l 595 496 l 694 496 l 694 397 l 595 397 m 198 397 l 198 496 l 298 496 l 298 397 l 198 397 m 99 198 l 99 298 l 198 298 l 198 198 l 99 198 m 397 198 l 397 298 l 496 298 l 496 198 l 397 198 m 298 0 l 298 99 l 397 99 l 397 0 l 298 0 m 595 0 l 595 99 l 694 99 l 694 0 l 595 0 m 496 -198 l 496 -99 l 595 -99 l 595 -198 l 496 -198 m 99 -198 l 99 -99 l 198 -99 l 198 -198 l 99 -198 m 0 595 l 0 694 l 99 694 l 99 595 l 0 595 z "},"▒":{"ha":694,"x_min":0,"x_max":694,"o":"m 0 1091 l 99 1091 l 198 1091 l 198 992 l 99 992 l 99 893 l 0 893 l 0 992 l 0 1091 m 298 1091 l 397 1091 l 496 1091 l 496 992 l 397 992 l 397 893 l 397 794 l 298 794 l 298 694 l 198 694 l 198 794 l 198 893 l 298 893 l 298 992 l 298 1091 m 198 694 l 99 694 l 0 694 l 0 595 l 0 496 l 0 397 l 99 397 l 99 496 l 99 595 l 198 595 l 198 694 m 496 893 l 496 794 l 496 694 l 397 694 l 397 595 l 397 496 l 496 496 l 496 595 l 595 595 l 595 694 l 595 794 l 694 794 l 694 893 l 595 893 l 496 893 m 397 496 l 298 496 l 198 496 l 198 397 l 198 298 l 99 298 l 99 198 l 99 99 l 198 99 l 198 198 l 298 198 l 298 298 l 298 397 l 397 397 l 397 496 m 99 99 l 0 99 l 0 0 l 99 0 l 99 99 m 595 496 l 595 397 l 595 298 l 694 298 l 694 397 l 694 496 l 595 496 m 595 298 l 496 298 l 397 298 l 397 198 l 397 99 l 298 99 l 298 0 l 298 -99 l 397 -99 l 397 0 l 496 0 l 496 99 l 496 198 l 595 198 l 595 298 m 298 -99 l 198 -99 l 99 -99 l 99 -198 l 99 -298 l 198 -298 l 198 -198 l 298 -198 l 298 -99 m 595 99 l 595 0 l 595 -99 l 496 -99 l 496 -198 l 496 -298 l 595 -298 l 595 -198 l 694 -198 l 694 -99 l 694 0 l 694 99 l 595 99 z "},"▓":{"ha":694,"x_min":0,"x_max":694,"o":"m 0 1091 l 99 1091 l 198 1091 l 298 1091 l 397 1091 l 496 1091 l 595 1091 l 595 992 l 496 992 l 496 893 l 595 893 l 694 893 l 694 794 l 694 694 l 694 595 l 595 595 l 595 496 l 496 496 l 496 397 l 397 397 l 397 298 l 496 298 l 595 298 l 595 397 l 595 496 l 694 496 l 694 397 l 694 298 l 694 198 l 595 198 l 595 99 l 694 99 l 694 0 l 694 -99 l 694 -198 l 694 -298 l 595 -298 l 496 -298 l 496 -198 l 496 -99 l 595 -99 l 595 0 l 496 0 l 496 -99 l 397 -99 l 397 -198 l 298 -198 l 298 -298 l 198 -298 l 99 -298 l 99 -198 l 0 -198 l 0 -99 l 0 0 l 0 99 l 99 99 l 99 198 l 99 298 l 198 298 l 198 397 l 99 397 l 99 298 l 0 298 l 0 397 l 0 496 l 0 595 l 0 694 l 99 694 l 198 694 l 198 794 l 198 893 l 298 893 l 298 992 l 198 992 l 198 893 l 99 893 l 99 794 l 0 794 l 0 893 l 0 992 l 0 1091 m 496 694 l 496 794 l 397 794 l 397 694 l 298 694 l 298 595 l 198 595 l 198 496 l 298 496 l 397 496 l 397 694 l 496 694 m 397 99 l 397 198 l 298 198 l 298 99 l 198 99 l 198 0 l 99 0 l 99 -99 l 298 -99 l 298 99 l 397 99 z "},"▕":{"ha":694,"x_min":595,"x_max":694,"o":"m 595 1091 l 694 1091 l 694 -298 l 595 -298 l 595 1091 z "},"▖":{"ha":694,"x_min":0,"x_max":298,"o":"m 0 -99 l 0 397 l 298 397 l 298 -99 l 0 -99 z "},"▗":{"ha":694,"x_min":298,"x_max":496,"o":"m 298 -99 l 298 397 l 496 397 l 496 -99 l 298 -99 z "},"▘":{"ha":694,"x_min":0,"x_max":298,"o":"m 0 893 l 298 893 l 298 397 l 0 397 l 0 893 z "},"▙":{"ha":694,"x_min":0,"x_max":496,"o":"m 0 893 l 298 893 l 298 397 l 496 397 l 496 -99 l 0 -99 l 0 893 z "},"▚":{"ha":694,"x_min":0,"x_max":496,"o":"m 0 893 l 298 893 l 298 397 l 496 397 l 496 -99 l 298 -99 l 298 397 l 0 397 l 0 893 z "},"▛":{"ha":694,"x_min":0,"x_max":496,"o":"m 0 -99 l 0 893 l 496 893 l 496 397 l 298 397 l 298 -99 l 0 -99 z "},"▜":{"ha":694,"x_min":0,"x_max":496,"o":"m 0 893 l 0 397 l 298 397 l 298 -99 l 496 -99 l 496 893 l 0 893 z "},"▝":{"ha":694,"x_min":298,"x_max":496,"o":"m 298 893 l 298 397 l 496 397 l 496 893 l 298 893 z "},"▞":{"ha":694,"x_min":0,"x_max":496,"o":"m 0 -99 l 0 496 l 298 496 l 298 893 l 496 893 l 496 496 l 298 496 l 298 -99 l 0 -99 z "},"▟":{"ha":694,"x_min":0,"x_max":496,"o":"m 0 -99 l 0 397 l 298 397 l 298 893 l 496 893 l 496 -99 l 0 -99 z "},"■":{"ha":694,"x_min":0,"x_max":694,"o":"m 0 99 l 0 794 l 694 794 l 694 99 l 0 99 z "},"□":{"ha":694,"x_min":0,"x_max":694,"o":"m 99 -298 l 99 -198 l 198 -198 l 198 -298 l 99 -298 m 0 99 l 0 198 l 99 198 l 99 298 l 198 298 l 198 198 l 298 198 l 298 0 l 198 0 l 198 -99 l 99 -99 l 99 0 l 198 0 l 198 198 l 99 198 l 99 99 l 0 99 m 694 694 l 397 694 l 397 397 l 694 397 l 694 496 l 595 496 l 595 595 l 694 595 l 694 694 m 0 694 l 298 694 l 298 595 l 198 595 l 198 496 l 298 496 l 298 397 l 198 397 l 198 496 l 99 496 l 99 397 l 0 397 q 0 694 0 397 m 397 1091 l 397 794 l 694 794 l 694 1091 l 595 1091 l 595 893 l 496 893 l 496 992 l 595 992 l 595 1091 q 397 1091 595 1091 m 0 1091 l 298 1091 l 298 794 l 198 794 l 198 893 l 99 893 l 99 794 l 0 794 q 0 1091 0 794 z "},"▬":{"ha":694,"x_min":0,"x_max":496,"o":"m 0 298 l 0 496 l 496 496 l 496 298 l 0 298 z "},"▲":{"ha":694,"x_min":0,"x_max":496,"o":"m 0 -99 l 0 198 l 99 198 l 99 496 l 198 496 l 198 794 l 298 794 l 298 496 l 397 496 l 397 198 l 496 198 l 496 -99 l 0 -99 z "},"▶":{"ha":694,"x_min":0,"x_max":496,"o":"m 0 893 l 99 893 l 99 794 l 198 794 l 198 694 l 298 694 l 298 595 l 397 595 l 397 496 l 496 496 l 496 298 l 397 298 l 397 198 l 298 198 l 298 99 l 198 99 l 198 0 l 99 0 l 99 -99 l 0 -99 l 0 893 z "},"►":{"ha":694,"x_min":0,"x_max":496,"o":"m 0 893 l 99 893 l 99 794 l 198 794 l 198 694 l 298 694 l 298 595 l 397 595 l 397 496 l 496 496 l 496 298 l 397 298 l 397 198 l 298 198 l 298 99 l 198 99 l 198 0 l 99 0 l 99 -99 l 0 -99 l 0 893 z "},"▼":{"ha":694,"x_min":0,"x_max":496,"o":"m 0 893 l 0 595 l 99 595 l 99 298 l 198 298 l 198 0 l 298 0 l 298 298 l 397 298 l 397 595 l 496 595 l 496 893 l 0 893 z "},"◀":{"ha":694,"x_min":0,"x_max":496,"o":"m 496 893 l 397 893 l 397 794 l 298 794 l 298 694 l 198 694 l 198 595 l 99 595 l 99 496 l 0 496 l 0 298 l 99 298 l 99 198 l 198 198 l 198 99 l 298 99 l 298 0 l 397 0 l 397 -99 l 496 -99 l 496 893 z "},"◂":{"ha":694,"x_min":0,"x_max":0,"o":""},"◄":{"ha":694,"x_min":0,"x_max":496,"o":"m 496 893 l 397 893 l 397 794 l 298 794 l 298 694 l 198 694 l 198 595 l 99 595 l 99 496 l 0 496 l 0 298 l 99 298 l 99 198 l 198 198 l 198 99 l 298 99 l 298 0 l 397 0 l 397 -99 l 496 -99 l 496 893 z "},"○":{"ha":694,"x_min":0,"x_max":496,"o":"m 198 198 l 198 298 l 99 298 l 99 198 l 198 198 m 198 198 l 198 99 l 298 99 l 298 198 l 198 198 m 99 298 l 99 397 l 198 397 l 198 496 l 298 496 l 298 397 l 397 397 l 397 298 l 298 298 l 298 198 l 397 198 l 397 298 l 496 298 l 496 397 l 397 397 l 397 496 l 298 496 l 298 595 l 198 595 l 198 496 l 99 496 l 99 397 l 0 397 l 0 298 l 99 298 z "},"●":{"ha":694,"x_min":0,"x_max":496,"o":"m 99 -99 l 99 0 l 0 0 l 0 794 l 99 794 l 99 893 l 397 893 l 397 794 l 496 794 l 496 0 l 397 0 l 397 -99 l 99 -99 z "},"◖":{"ha":694,"x_min":99,"x_max":496,"o":"m 298 -99 l 298 0 l 198 0 l 198 198 l 99 198 l 99 595 l 198 595 l 198 794 l 298 794 l 298 893 l 496 893 l 496 -99 l 298 -99 z "},"◗":{"ha":694,"x_min":0,"x_max":397,"o":"m 0 -99 l 0 893 l 198 893 l 198 794 l 298 794 l 298 595 l 397 595 l 397 198 l 298 198 l 298 0 l 198 0 l 198 -99 l 0 -99 z "},"◘":{"ha":694,"x_min":0,"x_max":496,"o":"m 198 496 l 198 397 l 99 397 l 99 298 l 198 298 l 198 198 l 298 198 l 298 298 l 397 298 l 397 397 l 298 397 l 298 496 l 198 496 m 0 -99 l 0 893 l 496 893 l 496 -99 l 0 -99 z "},"◙":{"ha":694,"x_min":0,"x_max":496,"o":"m 0 -99 l 496 -99 l 496 298 l 397 298 l 397 198 l 298 198 l 298 99 l 198 99 l 198 198 l 99 198 l 99 298 l 0 298 l 0 -99 m 99 397 l 99 298 l 198 298 l 198 198 l 298 198 l 298 298 l 397 298 l 397 397 l 298 397 l 298 496 l 198 496 l 198 397 l 99 397 m 0 893 l 496 893 l 496 397 l 397 397 l 397 496 l 298 496 l 298 595 l 198 595 l 198 496 l 99 496 l 99 397 l 0 397 l 0 893 z "},"◢":{"ha":694,"x_min":99,"x_max":496,"o":"m 99 -99 l 99 99 l 198 99 l 198 298 l 298 298 l 298 496 l 397 496 l 397 694 l 496 694 l 496 -99 l 99 -99 z "},"◣":{"ha":694,"x_min":0,"x_max":496,"o":"m 0 893 l 99 893 l 99 694 l 198 694 l 198 496 l 298 496 l 298 298 l 397 298 l 397 99 l 496 99 l 496 -99 l 0 -99 l 0 893 z "},"◤":{"ha":694,"x_min":0,"x_max":496,"o":"m 496 893 l 496 694 l 397 694 l 397 496 l 298 496 l 298 298 l 198 298 l 198 99 l 99 99 l 99 -99 l 0 -99 l 0 893 l 496 893 z "},"◥":{"ha":694,"x_min":99,"x_max":496,"o":"m 99 893 l 99 694 l 198 694 l 198 496 l 298 496 l 298 298 l 397 298 l 397 99 l 496 99 l 496 893 l 99 893 z "},"☰":{"ha":694,"x_min":0,"x_max":496,"o":"m 0 198 l 496 198 l 496 99 l 0 99 l 0 198 m 0 397 l 496 397 l 496 298 l 0 298 l 0 397 m 0 694 l 496 694 l 496 595 l 0 595 l 0 694 z "},"☺":{"ha":694,"x_min":0,"x_max":496,"o":"m 0 0 l 0 99 l 99 99 l 99 0 l 397 0 l 397 99 l 496 99 l 496 0 l 397 0 l 397 -99 l 99 -99 l 99 0 l 0 0 m 99 298 l 397 298 l 397 198 l 298 198 l 298 99 l 198 99 l 198 198 l 99 198 l 99 298 m 298 595 l 298 397 l 397 397 l 397 595 l 298 595 m 99 595 l 198 595 l 198 397 l 99 397 l 99 595 m 0 694 l 0 794 l 99 794 l 99 893 l 397 893 l 397 794 l 496 794 l 496 694 l 397 694 l 397 794 l 99 794 l 99 694 l 0 694 z "},"☻":{"ha":694,"x_min":0,"x_max":496,"o":"m 397 397 l 397 595 l 298 595 l 298 397 l 397 397 m 198 397 l 198 595 l 99 595 l 99 397 l 198 397 m 397 298 l 99 298 l 99 198 l 198 198 l 198 99 l 298 99 l 298 198 l 397 198 l 397 298 m 99 -99 l 99 0 l 0 0 l 0 794 l 99 794 l 99 893 l 397 893 l 397 794 l 496 794 l 496 0 l 397 0 l 397 -99 l 99 -99 z "},"☼":{"ha":694,"x_min":0,"x_max":496,"o":"m 298 198 l 298 298 l 397 298 l 397 397 l 298 397 l 298 496 l 198 496 l 198 397 l 99 397 l 99 298 l 198 298 l 198 198 l 298 198 m 198 0 l 198 198 l 99 198 l 99 99 l 0 99 l 0 198 l 99 198 l 99 298 l 0 298 l 0 397 l 99 397 l 99 496 l 0 496 l 0 595 l 99 595 l 99 496 l 198 496 l 198 694 l 298 694 l 298 496 l 397 496 l 397 595 l 496 595 l 496 496 l 397 496 l 397 397 l 496 397 l 496 298 l 397 298 l 397 198 l 496 198 l 496 99 l 397 99 l 397 198 l 298 198 l 298 0 l 198 0 z "},"♀":{"ha":694,"x_min":0,"x_max":496,"o":"m 99 794 l 99 397 l 397 397 l 397 794 l 99 794 m 0 794 l 99 794 l 99 893 l 397 893 l 397 794 l 496 794 l 496 397 l 397 397 l 397 298 l 298 298 l 298 198 l 496 198 l 496 99 l 298 99 l 298 -99 l 198 -99 l 198 99 l 0 99 l 0 198 l 198 198 l 198 298 l 99 298 l 99 397 l 0 397 l 0 794 z "},"♂":{"ha":694,"x_min":0,"x_max":496,"o":"m 99 0 l 397 0 l 397 397 l 99 397 l 99 0 m 99 0 l 0 0 l 0 496 l 99 496 l 99 595 l 198 595 l 198 694 l 298 694 l 298 794 l 198 794 l 198 893 l 496 893 l 496 595 l 397 595 l 397 694 l 298 694 l 298 595 l 198 595 l 198 496 l 397 496 l 397 397 l 496 397 l 496 0 l 397 0 l 397 -99 l 99 -99 l 99 0 z "},"♠":{"ha":694,"x_min":0,"x_max":496,"o":"m 198 99 l 0 99 l 0 496 l 99 496 l 99 694 l 198 694 l 198 893 l 298 893 l 298 694 l 397 694 l 397 496 l 496 496 l 496 99 l 298 99 l 298 198 l 198 198 l 198 99 m 99 -99 l 99 0 l 198 0 l 198 99 l 298 99 l 298 0 l 397 0 l 397 -99 l 99 -99 z "},"♣":{"ha":694,"x_min":0,"x_max":496,"o":"m 99 -99 l 99 0 l 198 0 l 198 99 l 298 99 l 298 0 l 397 0 l 397 -99 l 99 -99 m 298 99 l 397 99 l 397 198 l 496 198 l 496 397 l 397 397 l 397 496 l 298 496 l 298 397 l 198 397 l 198 496 l 99 496 l 99 397 l 0 397 l 0 198 l 99 198 l 99 99 l 198 99 l 198 198 l 298 198 l 298 99 m 298 496 l 198 496 l 198 595 l 99 595 l 99 794 l 198 794 l 198 893 l 298 893 l 298 794 l 397 794 l 397 595 l 298 595 l 298 496 z "},"♥":{"ha":694,"x_min":0,"x_max":496,"o":"m 0 893 l 198 893 l 198 694 l 298 694 l 298 893 l 496 893 l 496 298 l 397 298 l 397 99 l 298 99 l 298 -99 l 198 -99 l 198 99 l 99 99 l 99 298 l 0 298 l 0 893 z "},"♦":{"ha":694,"x_min":0,"x_max":496,"o":"m 198 -99 l 198 99 l 99 99 l 99 298 l 0 298 l 0 496 l 99 496 l 99 694 l 198 694 l 198 893 l 298 893 l 298 694 l 397 694 l 397 496 l 496 496 l 496 298 l 397 298 l 397 99 l 298 99 l 298 -99 l 198 -99 z "},"♩":{"ha":694,"x_min":0,"x_max":298,"o":"m 99 0 l 99 99 l 0 99 l 0 198 l 99 198 l 99 298 l 198 298 l 198 893 l 298 893 l 298 99 l 198 99 l 198 0 l 99 0 z "},"♪":{"ha":694,"x_min":0,"x_max":496,"o":"m 99 0 l 99 99 l 0 99 l 0 198 l 99 198 l 99 298 l 198 298 l 198 893 l 496 893 l 496 794 l 298 794 l 298 99 l 198 99 l 198 0 l 99 0 z "},"♫":{"ha":694,"x_min":0,"x_max":496,"o":"m 198 99 l 0 99 l 0 298 l 99 298 l 99 893 l 496 893 l 496 99 l 298 99 l 298 298 l 397 298 l 397 794 l 198 794 l 198 99 z "}}}
